0
SECTION
2
HEADER
9
$INSUNITS
70
4
9
$ACADVER
1
AC1014
9
$HANDSEED
5
FFFF
0
ENDSEC
0
SECTION
2
TABLES
0
TABLE
2
VPORT
5
8
100
AcDbSymbolTable
0
ENDTAB
0
TABLE
2
LTYPE
5
5
100
AcDbSymbolTable
0
LTYPE
5
14
100
AcDbSymbolTableRecord
100
AcDbLinetypeTableRecord
2
BYBLOCK
70
0
0
LTYPE
5
15
100
AcDbSymbolTableRecord
100
AcDbLinetypeTableRecord
2
BYLAYER
70
0
0
LTYPE
5
16
100
AcDbSymbolTableRecord
100
AcDbLinetypeTableRecord
2
DASHED
70
0
3
Dashed __ __ __ __ __ __ __ __ __ __ __ __ __ _
72
65
73
2
40
0.75
49
0.5
74
0
49
-0.25
74
0
0
ENDTAB
0
TABLE
2
LAYER
5
2
100
AcDbSymbolTable
70
2
0
LAYER
5
50
100
AcDbSymbolTableRecord
100
AcDbLayerTableRecord
2
0
70
0
62
7
6
CONTINUOUS
0
ENDTAB
0
TABLE
2
STYLE
5
3
100
AcDbSymbolTable
70
1
0
STYLE
5
11
100
AcDbSymbolTableRecord
100
AcDbTextStyleTableRecord
2
STANDARD
70
0
0
ENDTAB
0
TABLE
2
VIEW
5
6
100
AcDbSymbolTable
70
0
0
ENDTAB
0
TABLE
2
UCS
5
7
100
AcDbSymbolTable
70
0
0
ENDTAB
0
TABLE
2
APPID
5
9
100
AcDbSymbolTable
70
2
0
APPID
5
12
100
AcDbSymbolTableRecord
100
AcDbRegAppTableRecord
2
ACAD
70
0
0
ENDTAB
0
TABLE
2
DIMSTYLE
5
A
100
AcDbSymbolTable
70
1
0
ENDTAB
0
TABLE
2
BLOCK_RECORD
5
1
100
AcDbSymbolTable
70
1
0
BLOCK_RECORD
5
1F
100
AcDbSymbolTableRecord
100
AcDbBlockTableRecord
2
*MODEL_SPACE
0
BLOCK_RECORD
5
1B
100
AcDbSymbolTableRecord
100
AcDbBlockTableRecord
2
*PAPER_SPACE
0
ENDTAB
0
ENDSEC
0
SECTION
2
BLOCKS
0
BLOCK
5
20
100
AcDbEntity
100
AcDbBlockBegin
2
*MODEL_SPACE
0
ENDBLK
5
21
100
AcDbEntity
100
AcDbBlockEnd
0
BLOCK
5
1C
100
AcDbEntity
100
AcDbBlockBegin
2
*PAPER_SPACE
0
ENDBLK
5
1D
100
AcDbEntity
100
AcDbBlockEnd
0
ENDSEC
0
SECTION
2
ENTITIES
0
POINT
5
100
100
AcDbEntity
8
0
100
AcDbPoint
10
182.07821151727848
20
-57.553613382170433
30
0
0
POINT
5
101
100
AcDbEntity
8
0
100
AcDbPoint
10
209.74487818394516
20
-8.3536133821703906
30
0
0
POINT
5
102
100
AcDbEntity
8
0
100
AcDbPoint
10
209.74487818394516
20
8.0463866178295778
30
0
0
POINT
5
103
100
AcDbEntity
8
0
100
AcDbPoint
10
209.74487818394516
20
18.979719951163009
30
0
0
POINT
5
104
100
AcDbEntity
8
0
100
AcDbPoint
10
-40.614251614005141
20
135.46396330616457
30
0
0
POINT
5
105
100
AcDbEntity
8
0
100
AcDbPoint
10
-165.53869583491107
20
90.569265777894969
30
0
0
LWPOLYLINE
5
106
100
AcDbEntity
8
0
100
AcDbPolyline
90
4
70
1
43
0.0
10
-75
20
-75.000000000000014
10
-75
20
75.000000000000014
10
75
20
75.000000000000014
10
75
20
-75.000000000000014
0
LINE
5
107
100
AcDbEntity
8
0
100
AcDbLine
10
-50.199999999999996
20
50.199999999999996
30
0
11
50.199999999999996
21
50.199999999999996
31
0
0
LINE
5
108
100
AcDbEntity
8
0
100
AcDbLine
10
50.199999999999996
20
50.199999999999996
30
0
11
50.199999999999996
21
-50.199999999999996
31
0
0
LINE
5
109
100
AcDbEntity
8
0
100
AcDbLine
10
-50.199999999999974
20
-50.199999999999996
30
0
11
-50.199999999999996
21
50.199999999999996
31
0
0
LINE
5
110
100
AcDbEntity
8
0
100
AcDbLine
10
27.333333333333343
20
56
30
0
11
38.26666666666668
21
56
31
0
0
LINE
5
111
100
AcDbEntity
8
0
100
AcDbLine
10
5.4666666666666774
20
50.199999999999996
30
0
11
5.4666666666666774
21
56
31
0
0
LINE
5
112
100
AcDbEntity
8
0
100
AcDbLine
10
16.400000000000013
20
50.199999999999996
30
0
11
16.400000000000013
21
56
31
0
0
LINE
5
113
100
AcDbEntity
8
0
100
AcDbLine
10
16.400000000000013
20
56
30
0
11
5.4666666666666774
21
56
31
0
0
LINE
5
114
100
AcDbEntity
8
0
100
AcDbLine
10
-5.4666666666666508
20
50.199999999999996
30
0
11
-5.4666666666666508
21
56
31
0
0
LINE
5
115
100
AcDbEntity
8
0
100
AcDbLine
10
-16.399999999999991
20
50.199999999999996
30
0
11
-16.399999999999991
21
56
31
0
0
LINE
5
116
100
AcDbEntity
8
0
100
AcDbLine
10
-16.399999999999991
20
56
30
0
11
-5.4666666666666508
21
56
31
0
0
LINE
5
117
100
AcDbEntity
8
0
100
AcDbLine
10
-27.333333333333325
20
50.199999999999996
30
0
11
-27.333333333333325
21
56
31
0
0
LINE
5
118
100
AcDbEntity
8
0
100
AcDbLine
10
-38.266666666666666
20
50.199999999999996
30
0
11
-38.266666666666666
21
56
31
0
0
LINE
5
119
100
AcDbEntity
8
0
100
AcDbLine
10
-38.266666666666666
20
56
30
0
11
-27.333333333333325
21
56
31
0
0
LINE
5
120
100
AcDbEntity
8
0
100
AcDbLine
10
27.333333333333343
20
56
30
0
11
27.333333333333343
21
50.199999999999996
31
0
0
LINE
5
121
100
AcDbEntity
8
0
100
AcDbLine
10
38.26666666666668
20
56
30
0
11
38.26666666666668
21
50.199999999999996
31
0
0
LINE
5
122
100
AcDbEntity
8
0
100
AcDbLine
10
-75
20
75.000000000000014
30
0
11
75
21
75.000000000000014
31
0
0
LINE
5
123
100
AcDbEntity
8
0
100
AcDbLine
10
75
20
-75.000000000000014
30
0
11
75
21
75.000000000000014
31
0
0
LINE
5
124
100
AcDbEntity
8
0
100
AcDbLine
10
-75
20
-75.000000000000014
30
0
11
-75
21
75.000000000000014
31
0
0
LINE
5
125
100
AcDbEntity
8
0
100
AcDbLine
10
-75
20
-75.000000000000014
30
0
11
75
21
-75.000000000000014
31
0
0
LINE
5
126
100
AcDbEntity
8
0
100
AcDbLine
10
-50.199999999999974
20
-50.199999999999996
30
0
11
50.199999999999996
21
-50.199999999999996
31
0
0
LINE
5
127
100
AcDbEntity
8
0
100
AcDbLine
10
-38.266666666666666
20
-56
30
0
11
-27.333333333333325
21
-56
31
0
0
LINE
5
128
100
AcDbEntity
8
0
100
AcDbLine
10
-16.399999999999991
20
-50.199999999999996
30
0
11
-16.399999999999991
21
-56
31
0
0
LINE
5
129
100
AcDbEntity
8
0
100
AcDbLine
10
-38.266666666666666
20
-50.199999999999996
30
0
11
-38.266666666666666
21
-56
31
0
0
LINE
5
130
100
AcDbEntity
8
0
100
AcDbLine
10
27.333333333333343
20
-56
30
0
11
27.333333333333343
21
-50.199999999999996
31
0
0
LINE
5
131
100
AcDbEntity
8
0
100
AcDbLine
10
16.400000000000013
20
-50.199999999999996
30
0
11
16.400000000000013
21
-56
31
0
0
LINE
5
132
100
AcDbEntity
8
0
100
AcDbLine
10
27.333333333333343
20
-56
30
0
11
38.266666666666687
21
-56
31
0
0
LINE
5
133
100
AcDbEntity
8
0
100
AcDbLine
10
16.400000000000013
20
-56
30
0
11
5.4666666666666774
21
-56
31
0
0
LINE
5
134
100
AcDbEntity
8
0
100
AcDbLine
10
5.4666666666666774
20
-50.199999999999996
30
0
11
5.4666666666666774
21
-56
31
0
0
LINE
5
135
100
AcDbEntity
8
0
100
AcDbLine
10
38.266666666666687
20
-56
30
0
11
38.266666666666687
21
-50.199999999999996
31
0
0
LINE
5
136
100
AcDbEntity
8
0
100
AcDbLine
10
-5.4666666666666508
20
-50.199999999999996
30
0
11
-5.4666666666666508
21
-56
31
0
0
LINE
5
137
100
AcDbEntity
8
0
100
AcDbLine
10
-27.333333333333325
20
-50.199999999999996
30
0
11
-27.333333333333325
21
-56
31
0
0
LINE
5
138
100
AcDbEntity
8
0
100
AcDbLine
10
-16.399999999999991
20
-56
30
0
11
-5.4666666666666508
21
-56
31
0
0
LINE
5
139
100
AcDbEntity
8
0
100
AcDbLine
10
50.200000000000003
20
5.4666666666666774
30
0
11
56.000000000000007
21
5.4666666666666774
31
0
0
LINE
5
140
100
AcDbEntity
8
0
100
AcDbLine
10
50.200000000000003
20
-16.399999999999988
30
0
11
56.000000000000014
21
-16.399999999999999
31
0
0
LINE
5
141
100
AcDbEntity
8
0
100
AcDbLine
10
50.200000000000017
20
-38.266666666666666
30
0
11
56.000000000000014
21
-38.266666666666666
31
0
0
LINE
5
142
100
AcDbEntity
8
0
100
AcDbLine
10
56
20
27.333333333333343
30
0
11
56
21
38.26666666666668
31
0
0
LINE
5
143
100
AcDbEntity
8
0
100
AcDbLine
10
50.200000000000003
20
-5.4666666666666508
30
0
11
56.000000000000014
21
-5.4666666666666597
31
0
0
LINE
5
144
100
AcDbEntity
8
0
100
AcDbLine
10
56.000000000000014
20
-38.266666666666666
30
0
11
56.000000000000014
21
-27.333333333333325
31
0
0
LINE
5
145
100
AcDbEntity
8
0
100
AcDbLine
10
56
20
16.40000000000002
30
0
11
56.000000000000007
21
5.4666666666666774
31
0
0
LINE
5
146
100
AcDbEntity
8
0
100
AcDbLine
10
50.199999999999996
20
16.400000000000013
30
0
11
56
21
16.40000000000002
31
0
0
LINE
5
147
100
AcDbEntity
8
0
100
AcDbLine
10
56
20
38.26666666666668
30
0
11
50.199999999999996
21
38.26666666666668
31
0
0
LINE
5
148
100
AcDbEntity
8
0
100
AcDbLine
10
50.200000000000017
20
-27.333333333333325
30
0
11
56.000000000000014
21
-27.333333333333325
31
0
0
LINE
5
149
100
AcDbEntity
8
0
100
AcDbLine
10
56
20
27.333333333333343
30
0
11
50.199999999999996
21
27.333333333333343
31
0
0
LINE
5
150
100
AcDbEntity
8
0
100
AcDbLine
10
56.000000000000014
20
-16.399999999999999
30
0
11
56.000000000000014
21
-5.4666666666666597
31
0
0
LINE
5
151
100
AcDbEntity
8
0
100
AcDbLine
10
-56
20
16.399999999999988
30
0
11
-56
21
5.4666666666666508
31
0
0
LINE
5
152
100
AcDbEntity
8
0
100
AcDbLine
10
-56
20
38.266666666666659
30
0
11
-56
21
27.333333333333321
31
0
0
LINE
5
153
100
AcDbEntity
8
0
100
AcDbLine
10
-50.200000000000003
20
-16.400000000000023
30
0
11
-56.000000000000014
21
-16.400000000000034
31
0
0
LINE
5
154
100
AcDbEntity
8
0
100
AcDbLine
10
-56.000000000000014
20
-27.333333333333361
30
0
11
-56.000000000000014
21
-38.266666666666694
31
0
0
LINE
5
155
100
AcDbEntity
8
0
100
AcDbLine
10
-50.199999999999996
20
27.333333333333321
30
0
11
-56
21
27.333333333333321
31
0
0
LINE
5
156
100
AcDbEntity
8
0
100
AcDbLine
10
-56.000000000000014
20
-27.333333333333361
30
0
11
-50.200000000000003
21
-27.33333333333335
31
0
0
LINE
5
157
100
AcDbEntity
8
0
100
AcDbLine
10
-50.199999999999996
20
38.266666666666666
30
0
11
-56
21
38.266666666666659
31
0
0
LINE
5
158
100
AcDbEntity
8
0
100
AcDbLine
10
-50.199999999999996
20
5.4666666666666508
30
0
11
-56
21
5.4666666666666508
31
0
0
LINE
5
159
100
AcDbEntity
8
0
100
AcDbLine
10
-56.000000000000014
20
-38.266666666666694
30
0
11
-50.200000000000017
21
-38.266666666666694
31
0
0
LINE
5
160
100
AcDbEntity
8
0
100
AcDbLine
10
-50.199999999999996
20
16.399999999999988
30
0
11
-56
21
16.399999999999988
31
0
0
LINE
5
161
100
AcDbEntity
8
0
100
AcDbLine
10
-50.200000000000003
20
-5.4666666666666863
30
0
11
-56.000000000000014
21
-5.4666666666666952
31
0
0
LINE
5
162
100
AcDbEntity
8
0
100
AcDbLine
10
-56.000000000000014
20
-16.400000000000034
30
0
11
-56.000000000000014
21
-5.4666666666666952
31
0
0
LINE
5
163
100
AcDbEntity
8
0
100
AcDbLine
10
98.744878183945147
20
40.846386617829623
30
0
11
98.744878183945147
21
29.913053284496286
31
0
0
LINE
5
164
100
AcDbEntity
8
0
100
AcDbLine
10
98.744878183945147
20
40.846386617829623
30
0
11
98.744878183945147
21
47.646386617829613
31
0
0
LINE
5
165
100
AcDbEntity
8
0
100
AcDbLine
10
98.744878183945147
20
47.646386617829613
30
0
11
116.47821151727851
21
47.646386617829634
31
0
0
LINE
5
166
100
AcDbEntity
8
0
100
AcDbLine
10
193.01154485061187
20
47.646386617829599
30
0
11
210.74487818394519
21
47.646386617829599
31
0
0
LINE
5
167
100
AcDbEntity
8
0
100
AcDbLine
10
210.74487818394519
20
47.646386617829599
30
0
11
210.74487818394516
21
40.84638661782958
31
0
0
LINE
5
168
100
AcDbEntity
8
0
100
AcDbLine
10
210.74487818394516
20
29.913053284496243
30
0
11
210.74487818394516
21
40.84638661782958
31
0
0
LINE
5
169
100
AcDbEntity
8
0
100
AcDbLine
10
210.74487818394516
20
-46.620280048837145
30
0
11
210.74487818394516
21
-64.353613382170394
31
0
0
LINE
5
170
100
AcDbEntity
8
0
100
AcDbLine
10
203.94487818394515
20
-64.353613382170451
30
0
11
210.74487818394516
21
-64.353613382170394
31
0
0
LINE
5
171
100
AcDbEntity
8
0
100
AcDbLine
10
193.01154485061181
20
-64.353613382170437
30
0
11
203.94487818394515
21
-64.353613382170451
31
0
0
LINE
5
172
100
AcDbEntity
8
0
100
AcDbLine
10
98.744878183945147
20
-46.62028004883706
30
0
11
98.744878183945147
21
-64.35361338217038
31
0
0
LINE
5
173
100
AcDbEntity
8
0
100
AcDbLine
10
98.744878183945147
20
-64.35361338217038
30
0
11
116.47821151727847
21
-64.35361338217038
31
0
0
LINE
5
174
100
AcDbEntity
8
0
100
AcDbLine
10
98.744878183945147
20
18.979719951162949
30
0
11
98.744878183945147
21
8.0463866178296168
31
0
0
LINE
5
175
100
AcDbEntity
8
0
100
AcDbLine
10
98.744878183945147
20
-2.8869467155037198
30
0
11
98.744878183945147
21
-13.820280048837056
31
0
0
LINE
5
176
100
AcDbEntity
8
0
100
AcDbLine
10
127.4115448506118
20
-64.353613382170437
30
0
11
138.34487818394513
21
-64.353613382170451
31
0
0
LINE
5
177
100
AcDbEntity
8
0
100
AcDbLine
10
149.27821151727846
20
-64.353613382170437
30
0
11
160.2115448506118
21
-64.353613382170451
31
0
0
LINE
5
178
100
AcDbEntity
8
0
100
AcDbLine
10
171.14487818394514
20
-64.353613382170437
30
0
11
182.07821151727848
21
-64.353613382170451
31
0
0
LINE
5
179
100
AcDbEntity
8
0
100
AcDbLine
10
210.74487818394516
20
-24.753613382170329
30
0
11
210.74487818394516
21
-35.686946715503801
31
0
0
LINE
5
180
100
AcDbEntity
8
0
100
AcDbLine
10
210.74487818394516
20
-2.8869467155036599
30
0
11
210.74487818394516
21
-13.820280048837093
31
0
0
LINE
5
181
100
AcDbEntity
8
0
100
AcDbLine
10
210.74487818394516
20
18.979719951163009
30
0
11
210.74487818394516
21
8.0463866178295778
31
0
0
LINE
5
182
100
AcDbEntity
8
0
100
AcDbLine
10
127.41154485061185
20
47.646386617829613
30
0
11
138.34487818394518
21
47.646386617829613
31
0
0
LINE
5
183
100
AcDbEntity
8
0
100
AcDbLine
10
149.27821151727846
20
47.646386617829606
30
0
11
160.21154485061186
21
47.646386617829606
31
0
0
LINE
5
184
100
AcDbEntity
8
0
100
AcDbLine
10
171.1448781839452
20
47.646386617829606
30
0
11
182.07821151727853
21
47.646386617829599
31
0
0
LWPOLYLINE
5
185
100
AcDbEntity
8
0
100
AcDbPolyline
90
4
70
1
43
0.0
10
104.54487818394514
20
41.846386617829623
10
204.94487818394518
20
41.846386617829587
10
204.94487818394518
20
-58.55361338217044
10
104.54487818394514
20
-58.553613382170425
0
LINE
5
186
100
AcDbEntity
8
0
100
AcDbLine
10
182.07821151727853
20
47.646386617829599
30
0
11
182.07821151727853
21
41.846386617829594
31
0
0
LINE
5
187
100
AcDbEntity
8
0
100
AcDbLine
10
171.1448781839452
20
47.646386617829606
30
0
11
171.1448781839452
21
41.846386617829594
31
0
0
LINE
5
188
100
AcDbEntity
8
0
100
AcDbLine
10
160.21154485061186
20
47.646386617829606
30
0
11
160.21154485061186
21
41.846386617829609
31
0
0
LINE
5
189
100
AcDbEntity
8
0
100
AcDbLine
10
149.27821151727846
20
47.646386617829606
30
0
11
149.27821151727846
21
41.846386617829609
31
0
0
LINE
5
190
100
AcDbEntity
8
0
100
AcDbLine
10
138.34487818394518
20
47.646386617829613
30
0
11
138.34487818394518
21
41.846386617829616
31
0
0
LINE
5
191
100
AcDbEntity
8
0
100
AcDbLine
10
127.41154485061185
20
47.646386617829613
30
0
11
127.41154485061185
21
41.846386617829616
31
0
0
LINE
5
192
100
AcDbEntity
8
0
100
AcDbLine
10
116.47821151727851
20
47.646386617829634
30
0
11
116.47821151727851
21
41.846386617829623
31
0
0
LINE
5
193
100
AcDbEntity
8
0
100
AcDbLine
10
98.744878183945147
20
29.913053284496286
30
0
11
104.54487818394514
21
29.913053284496286
31
0
0
LINE
5
194
100
AcDbEntity
8
0
100
AcDbLine
10
98.744878183945147
20
18.979719951162949
30
0
11
104.54487818394514
21
18.979719951162952
31
0
0
LINE
5
195
100
AcDbEntity
8
0
100
AcDbLine
10
98.744878183945147
20
8.0463866178296168
30
0
11
104.54487818394514
21
8.0463866178296151
31
0
0
LINE
5
196
100
AcDbEntity
8
0
100
AcDbLine
10
98.744878183945147
20
-2.8869467155037198
30
0
11
104.54487818394514
21
-2.8869467155037198
31
0
0
LINE
5
197
100
AcDbEntity
8
0
100
AcDbLine
10
98.744878183945147
20
-13.820280048837056
30
0
11
104.54487818394514
21
-13.820280048837059
31
0
0
LINE
5
198
100
AcDbEntity
8
0
100
AcDbLine
10
98.744878183945147
20
-24.753613382170386
30
0
11
98.744878183945147
21
-35.686946715503723
31
0
0
LINE
5
199
100
AcDbEntity
8
0
100
AcDbLine
10
98.744878183945147
20
-24.753613382170386
30
0
11
104.54487818394514
21
-24.753613382170386
31
0
0
LINE
5
200
100
AcDbEntity
8
0
100
AcDbLine
10
98.744878183945147
20
-35.686946715503723
30
0
11
104.54487818394514
21
-35.686946715503723
31
0
0
LINE
5
201
100
AcDbEntity
8
0
100
AcDbLine
10
98.744878183945147
20
-46.62028004883706
30
0
11
104.54487818394514
21
-46.620280048837053
31
0
0
LINE
5
202
100
AcDbEntity
8
0
100
AcDbLine
10
116.47821151727847
20
-64.35361338217038
30
0
11
116.47821151727847
21
-58.553613382170425
31
0
0
LINE
5
203
100
AcDbEntity
8
0
100
AcDbLine
10
138.34487818394513
20
-64.353613382170451
30
0
11
138.34487818394513
21
-58.553613382170433
31
0
0
LINE
5
204
100
AcDbEntity
8
0
100
AcDbLine
10
127.4115448506118
20
-64.353613382170437
30
0
11
127.4115448506118
21
-58.553613382170425
31
0
0
LINE
5
205
100
AcDbEntity
8
0
100
AcDbLine
10
149.27821151727846
20
-64.353613382170437
30
0
11
149.27821151727846
21
-58.553613382170433
31
0
0
LINE
5
206
100
AcDbEntity
8
0
100
AcDbLine
10
160.2115448506118
20
-64.353613382170451
30
0
11
160.2115448506118
21
-58.553613382170433
31
0
0
LINE
5
207
100
AcDbEntity
8
0
100
AcDbLine
10
171.14487818394514
20
-64.353613382170437
30
0
11
171.14487818394514
21
-58.553613382170433
31
0
0
LINE
5
208
100
AcDbEntity
8
0
100
AcDbLine
10
182.07821151727848
20
-64.353613382170451
30
0
11
182.07821151727848
21
-58.55361338217044
31
0
0
LINE
5
209
100
AcDbEntity
8
0
100
AcDbLine
10
193.01154485061181
20
-64.353613382170437
30
0
11
193.01154485061181
21
-58.55361338217044
31
0
0
LINE
5
210
100
AcDbEntity
8
0
100
AcDbLine
10
210.74487818394516
20
-46.620280048837145
30
0
11
204.94487818394518
21
-46.620280048837145
31
0
0
LINE
5
211
100
AcDbEntity
8
0
100
AcDbLine
10
210.74487818394516
20
-35.686946715503801
30
0
11
204.94487818394518
21
-35.686946715503801
31
0
0
LINE
5
212
100
AcDbEntity
8
0
100
AcDbLine
10
210.74487818394516
20
-24.753613382170329
30
0
11
204.94487818394518
21
-24.753613382170329
31
0
0
LINE
5
213
100
AcDbEntity
8
0
100
AcDbLine
10
210.74487818394516
20
-13.820280048837093
30
0
11
204.94487818394518
21
-13.820280048837093
31
0
0
LINE
5
214
100
AcDbEntity
8
0
100
AcDbLine
10
210.74487818394516
20
-2.8869467155036599
30
0
11
204.94487818394518
21
-2.8869467155036599
31
0
0
LINE
5
215
100
AcDbEntity
8
0
100
AcDbLine
10
210.74487818394516
20
8.0463866178295778
30
0
11
204.94487818394518
21
8.0463866178295795
31
0
0
LINE
5
216
100
AcDbEntity
8
0
100
AcDbLine
10
210.74487818394516
20
18.979719951163009
30
0
11
204.94487818394518
21
18.979719951163009
31
0
0
LINE
5
217
100
AcDbEntity
8
0
100
AcDbLine
10
210.74487818394516
20
29.913053284496243
30
0
11
204.94487818394518
21
29.913053284496243
31
0
0
LINE
5
218
100
AcDbEntity
8
0
100
AcDbLine
10
193.01154485061187
20
47.646386617829599
30
0
11
193.01154485061187
21
41.846386617829587
31
0
0
LINE
5
219
100
AcDbEntity
8
0
100
AcDbLine
10
-57.01389883052304
20
174.36394690582929
30
0
11
-46.080565497207431
21
174.36394143909217
31
0
0
LINE
5
220
100
AcDbEntity
8
0
100
AcDbLine
10
-89.814235063878428
20
168.56396330618207
30
0
11
-78.880901730778447
21
168.56395783939172
31
0
0
LINE
5
221
100
AcDbEntity
8
0
100
AcDbLine
10
-89.814251614035356
20
102.36396330631683
30
0
11
-89.81425161406726
21
111.82110616332875
31
0
0
LINE
5
222
100
AcDbEntity
8
0
100
AcDbLine
10
-67.947235063921255
20
168.56395237257246
30
0
11
-57.013901730658517
21
168.56394690579847
31
0
0
LINE
5
223
100
AcDbEntity
8
0
100
AcDbLine
10
-89.814251614035356
20
102.36396330631683
30
0
11
-78.880918280750194
21
102.36396330631203
31
0
0
LINE
5
224
100
AcDbEntity
8
0
100
AcDbLine
10
-67.947565497273217
20
174.36395237269323
30
0
11
-67.947568397143371
21
168.56395237267901
31
0
0
LINE
5
225
100
AcDbEntity
8
0
100
AcDbLine
10
-72.614251613961812
20
102.36396330618985
30
0
11
-66.614251614023189
21
102.36396330567797
31
0
0
LINE
5
226
100
AcDbEntity
8
0
100
AcDbLine
10
-35.146901730661
20
168.56393597217539
30
0
11
-35.146898830525558
21
174.36393597217301
31
0
0
LINE
5
227
100
AcDbEntity
8
0
100
AcDbLine
10
-46.080565497207431
20
174.36394143909217
30
0
11
-46.080568397206427
21
168.5639414390912
31
0
0
LINE
5
228
100
AcDbEntity
8
0
100
AcDbLine
10
-57.013918280788133
20
102.36396330623538
30
0
11
-57.013918280676101
21
96.563963306235863
31
0
0
LINE
5
229
100
AcDbEntity
8
0
100
AcDbLine
10
-67.947251614052533
20
102.36396330618588
30
0
11
-57.013918280788133
21
102.36396330623538
31
0
0
LINE
5
230
100
AcDbEntity
8
0
100
AcDbLine
10
-78.880898830635843
20
174.36395783939815
30
0
11
-67.947565497273217
21
174.36395237269323
31
0
0
LINE
5
231
100
AcDbEntity
8
0
100
AcDbLine
10
-24.213584947351094
20
96.56396330623592
30
0
11
-24.213584947273734
21
102.36396330619507
31
0
0
LINE
5
232
100
AcDbEntity
8
0
100
AcDbLine
10
-78.880918280750194
20
102.36396330631203
30
0
11
-78.880918280747238
21
96.563963306283895
31
0
0
LINE
5
233
100
AcDbEntity
8
0
100
AcDbLine
10
-13.279898830528118
20
174.36392503853489
30
0
11
-2.3465654972602934
21
174.36391957181496
31
0
0
LINE
5
234
100
AcDbEntity
8
0
100
AcDbLine
10
-24.213565497182703
20
174.36393050543899
30
0
11
-24.213568397356529
21
168.56393050551412
31
0
0
LINE
5
235
100
AcDbEntity
8
0
100
AcDbLine
10
-78.880901730778447
20
168.56395783939172
30
0
11
-78.880898830635843
21
174.36395783939815
31
0
0
CIRCLE
5
236
100
AcDbEntity
8
0
100
AcDbCircle
10
-14.614257864154752
20
127.36396330547691
30
0
40
3.5000000000000142
210
0
220
0
230
1
0
CIRCLE
5
237
100
AcDbEntity
8
0
100
AcDbCircle
10
-66.614245363897908
20
127.3639633056129
30
0
40
3.5000000000000142
210
0
220
0
230
1
0
LINE
5
238
100
AcDbEntity
8
0
100
AcDbLine
10
-13.2799182806761
20
96.563963306235848
30
0
11
-2.3465849473511113
21
96.56396330623592
31
0
0
LINE
5
239
100
AcDbEntity
8
0
100
AcDbLine
10
-2.3465654972602934
20
174.36391957181496
30
0
11
-2.3465683969452655
21
168.56391957185767
31
0
0
LINE
5
240
100
AcDbEntity
8
0
100
AcDbLine
10
-2.3465683969452655
20
168.56391957185767
30
0
11
8.5857649361550159
21
168.56391410547127
31
0
0
LINE
5
241
100
AcDbEntity
8
0
100
AcDbLine
10
-13.279918280788188
20
102.36396330623538
30
0
11
-13.2799182806761
21
96.563963306235848
31
0
0
LINE
5
242
100
AcDbEntity
8
0
100
AcDbLine
10
-13.279901730663575
20
168.56392503855409
30
0
11
-13.279898830528118
21
174.36392503853489
31
0
0
LINE
5
243
100
AcDbEntity
8
0
100
AcDbLine
10
-24.213235063926604
20
168.563930505332
30
0
11
-13.279901730663575
21
168.56392503855409
31
0
0
LINE
5
244
100
AcDbEntity
8
0
100
AcDbLine
10
-8.6142516141462266
20
135.46395530611119
30
0
11
-8.6142516139812386
21
102.36396330620872
31
0
0
LINE
5
245
100
AcDbEntity
8
0
100
AcDbLine
10
-35.146918280788135
20
102.3639633062337
30
0
11
-35.146918280676083
21
96.563963306235451
31
0
0
LINE
5
246
100
AcDbEntity
8
0
100
AcDbLine
10
-35.146918280676083
20
96.563963306235451
30
0
11
-24.213584947351094
21
96.56396330623592
31
0
0
LINE
5
247
100
AcDbEntity
8
0
100
AcDbLine
10
-2.3465849473511113
20
96.56396330623592
30
0
11
-2.3465849472737332
21
102.36396330619507
31
0
0
LINE
5
248
100
AcDbEntity
8
0
100
AcDbLine
10
-35.146898830525558
20
174.36393597217301
30
0
11
-24.213565497182703
21
174.36393050543899
31
0
0
LINE
5
249
100
AcDbEntity
8
0
100
AcDbLine
10
-24.213251614052531
20
102.36396330618588
30
0
11
-13.279918280788188
21
102.36396330623538
31
0
0
LINE
5
250
100
AcDbEntity
8
0
100
AcDbLine
10
-46.080251614052244
20
102.36396330618588
30
0
11
-35.146918280788135
21
102.3639633062337
31
0
0
LINE
5
251
100
AcDbEntity
8
0
100
AcDbLine
10
-57.013901730658517
20
168.56394690579847
30
0
11
-57.01389883052304
21
174.36394690582929
31
0
0
LINE
5
252
100
AcDbEntity
8
0
100
AcDbLine
10
-46.080235063923745
20
168.56394143896148
30
0
11
-35.146901730661
21
168.56393597217539
31
0
0
LINE
5
253
100
AcDbEntity
8
0
100
AcDbLine
10
-40.614251614010385
20
135.46396330616412
30
0
11
-8.6142516141462266
21
135.46395530611119
31
0
0
LINE
5
254
100
AcDbEntity
8
0
100
AcDbLine
10
-46.080584947351113
20
96.56396330623592
30
0
11
-46.080584947273735
21
102.36396330619507
31
0
0
LINE
5
255
100
AcDbEntity
8
0
100
AcDbLine
10
-40.614251614005411
20
135.4639633061615
30
0
11
-72.614251614004388
21
135.46397130621565
31
0
0
LINE
5
256
100
AcDbEntity
8
0
100
AcDbLine
10
-67.947584947413901
20
96.563963306289523
30
0
11
-67.947584947273739
21
102.36396330619507
31
0
0
LINE
5
257
100
AcDbEntity
8
0
100
AcDbLine
10
-66.614251614023189
20
102.36396330567797
30
0
11
-66.614245363974206
21
127.36396330567726
31
0
0
LINE
5
258
100
AcDbEntity
8
0
100
AcDbLine
10
-2.3465849472737332
20
102.36396330619507
30
0
11
8.5857483860135986
21
102.36396330621264
31
0
0
LINE
5
259
100
AcDbEntity
8
0
100
AcDbLine
10
-57.013918280676101
20
96.563963306235863
30
0
11
-46.080584947351113
21
96.56396330623592
31
0
0
LINE
5
260
100
AcDbEntity
8
0
100
AcDbLine
10
-78.880918280747238
20
96.563963306283895
30
0
11
-67.947584947413901
21
96.563963306289523
31
0
0
LINE
5
261
100
AcDbEntity
8
0
100
AcDbLine
10
-72.614251614004388
20
135.46397130621565
30
0
11
-72.614251613961812
21
102.36396330618985
31
0
0
LINE
5
262
100
AcDbEntity
8
0
100
AcDbLine
10
-96.614184614112929
20
149.6491110593895
30
0
11
-96.614184614112929
21
159.10625391653235
31
0
0
LINE
5
263
100
AcDbEntity
8
0
100
AcDbLine
10
-96.614184614112929
20
130.73511105938948
30
0
11
-96.614184614112929
21
140.19225391653234
31
0
0
LINE
5
264
100
AcDbEntity
8
0
100
AcDbLine
10
-96.614184614118997
20
111.82110657200717
30
0
11
-96.614184614119381
21
121.27825391653225
31
0
0
LINE
5
265
100
AcDbEntity
8
0
100
AcDbLine
10
-90.813992395772033
20
168.56396626634984
30
0
11
-89.814251613916767
21
168.56396330618588
31
0
0
LINE
5
266
100
AcDbEntity
8
0
100
AcDbLine
10
-96.614184614112929
20
159.10625391653235
30
0
11
-90.814019857238918
21
159.10623707517124
31
0
0
LINE
5
267
100
AcDbEntity
8
0
100
AcDbLine
10
-96.614184614112929
20
149.6491110593895
30
0
11
-90.8140473170033
21
149.64909421810813
31
0
0
LINE
5
268
100
AcDbEntity
8
0
100
AcDbLine
10
-96.614184614112929
20
140.19225391653234
30
0
11
-90.814074775938067
21
140.19223707533072
31
0
0
LINE
5
269
100
AcDbEntity
8
0
100
AcDbLine
10
-96.614184614112929
20
130.73511105938948
30
0
11
-90.814102235702478
21
130.73509421826759
31
0
0
LINE
5
270
100
AcDbEntity
8
0
100
AcDbLine
10
-96.614184614119381
20
121.27825391653225
30
0
11
-90.814129694637273
21
121.2782370754901
31
0
0
LINE
5
271
100
AcDbEntity
8
0
100
AcDbLine
10
-96.614184614118997
20
111.82110657200717
30
0
11
-90.814157154236369
21
111.82108938142864
31
0
0
LINE
5
272
100
AcDbEntity
8
0
100
AcDbLine
10
-90.813992395772033
20
168.56396626634984
30
0
11
-90.814019857238918
21
159.10623707517124
31
0
0
LINE
5
273
100
AcDbEntity
8
0
100
AcDbLine
10
-90.8140473170033
20
149.64909421810813
30
0
11
-90.814074775938067
21
140.19223707533072
31
0
0
LINE
5
274
100
AcDbEntity
8
0
100
AcDbLine
10
-90.814102235702478
20
130.73509421826759
30
0
11
-90.814129694637273
21
121.2782370754901
31
0
0
LINE
5
275
100
AcDbEntity
8
0
100
AcDbLine
10
-90.814157154236369
20
111.82108938142864
30
0
11
-89.81425161406726
21
111.82110616332875
31
0
0
LINE
5
276
100
AcDbEntity
8
0
100
AcDbLine
10
15.385815385674668
20
159.10625391653241
30
0
11
15.385815385663548
21
168.56339169786497
31
0
0
LINE
5
277
100
AcDbEntity
8
0
100
AcDbLine
10
9.585815385887102
20
149.64911105938961
30
0
11
9.5858153858871376
21
159.10625391653238
31
0
0
LINE
5
278
100
AcDbEntity
8
0
100
AcDbLine
10
15.385815385887227
20
140.19196820224664
30
0
11
15.385815385887227
21
149.64911105938964
31
0
0
LINE
5
279
100
AcDbEntity
8
0
100
AcDbLine
10
9.585815385887102
20
130.7351110593896
30
0
11
9.585815385887102
21
140.19225391653242
31
0
0
LINE
5
280
100
AcDbEntity
8
0
100
AcDbLine
10
15.385815385887227
20
121.27796820224663
30
0
11
15.385815385887227
21
130.73511105938965
31
0
0
LINE
5
281
100
AcDbEntity
8
0
100
AcDbLine
10
9.585815385887102
20
111.82111105938958
30
0
11
9.585815385887102
21
121.27825391653244
31
0
0
LINE
5
282
100
AcDbEntity
8
0
100
AcDbLine
10
15.385815385887227
20
102.36396330619141
30
0
11
15.385815385887227
21
111.82111105938965
31
0
0
LINE
5
283
100
AcDbEntity
8
0
100
AcDbLine
10
15.385815385887227
20
102.36396330619141
30
0
11
8.5857483860135986
21
102.36396330621264
31
0
0
LINE
5
284
100
AcDbEntity
8
0
100
AcDbLine
10
9.585815385887102
20
111.82111105938958
30
0
11
15.385815385887227
21
111.82111105938965
31
0
0
LINE
5
285
100
AcDbEntity
8
0
100
AcDbLine
10
15.385815385887227
20
121.27796820224663
30
0
11
9.585815385887102
21
121.27825391653244
31
0
0
LINE
5
286
100
AcDbEntity
8
0
100
AcDbLine
10
15.385815385887227
20
130.73511105938965
30
0
11
9.585815385887102
21
130.7351110593896
31
0
0
LINE
5
287
100
AcDbEntity
8
0
100
AcDbLine
10
15.385815385887227
20
140.19196820224664
30
0
11
9.585815385887102
21
140.19225391653242
31
0
0
LINE
5
288
100
AcDbEntity
8
0
100
AcDbLine
10
15.385815385887227
20
149.64911105938964
30
0
11
9.585815385887102
21
149.64911105938961
31
0
0
LINE
5
289
100
AcDbEntity
8
0
100
AcDbLine
10
15.385815385674668
20
159.10625391653241
30
0
11
9.5858153858871376
21
159.10625391653238
31
0
0
LINE
5
290
100
AcDbEntity
8
0
100
AcDbLine
10
15.385815385663548
20
168.56339169786497
30
0
11
8.5857483860832673
21
168.56396330618583
31
0
0
LINE
5
291
100
AcDbEntity
8
0
100
AcDbLine
10
137.65367426921205
20
102.36339677311739
30
0
11
148.58600760257889
21
102.36339677311742
31
0
0
LINE
5
292
100
AcDbEntity
8
0
100
AcDbLine
10
104.85334093587869
20
102.3633967731174
30
0
11
104.85334093587869
21
96.563396773117404
31
0
0
LINE
5
293
100
AcDbEntity
8
0
100
AcDbLine
10
43.38581538588727
20
140.19225391653234
30
0
11
49.185925224062004
21
140.19223707533072
31
0
0
LINE
5
294
100
AcDbEntity
8
0
100
AcDbLine
10
72.05300760386919
20
168.56384121562584
30
0
11
82.986340937018184
21
168.56377772356237
31
0
0
LINE
5
295
100
AcDbEntity
8
0
100
AcDbLine
10
43.38581538588727
20
159.10625391653235
30
0
11
49.185980142761139
21
159.10623707517124
31
0
0
LINE
5
296
100
AcDbEntity
8
0
100
AcDbLine
10
155.38581538588721
20
102.36339677311746
30
0
11
148.58600760257889
21
102.36339677311742
31
0
0
LINE
5
297
100
AcDbEntity
8
0
100
AcDbLine
10
126.72034093628068
20
168.56352375143706
30
0
11
126.72037461804604
21
174.36352375133924
31
0
0
LINE
5
298
100
AcDbEntity
8
0
100
AcDbLine
10
61.119340935878697
20
96.563396773117404
30
0
11
72.052674269212034
21
96.563396773117404
31
0
0
LINE
5
299
100
AcDbEntity
8
0
100
AcDbLine
10
155.38581538588721
20
140.19196820224664
30
0
11
155.38581538588721
21
149.64911105938953
31
0
0
LINE
5
300
100
AcDbEntity
8
0
100
AcDbLine
10
49.186035063949163
20
111.82109421786899
30
0
11
49.186007602578705
21
102.36339677311732
31
0
0
LINE
5
301
100
AcDbEntity
8
0
100
AcDbLine
10
155.38581536988113
20
168.56282536069989
30
0
11
148.58600760257875
21
168.5633967731174
31
0
0
LINE
5
302
100
AcDbEntity
8
0
100
AcDbLine
10
82.986340937017999
20
168.56377772356251
30
0
11
82.986374618783401
21
174.36377772346472
31
0
0
LINE
5
303
100
AcDbEntity
8
0
100
AcDbLine
10
155.38581538588721
20
121.27796820224663
30
0
11
155.38581538588721
21
130.73511105938951
31
0
0
LINE
5
304
100
AcDbEntity
8
0
100
AcDbLine
10
155.38581538588721
20
121.27796820224663
30
0
11
149.58581538588726
21
121.27825391653244
31
0
0
LINE
5
305
100
AcDbEntity
8
0
100
AcDbLine
10
43.385815385887128
20
149.64911105938961
30
0
11
49.185952682996756
21
149.64909421810825
31
0
0
LINE
5
306
100
AcDbEntity
8
0
100
AcDbLine
10
72.053007602578703
20
102.36339677311734
30
0
11
82.986340935878673
21
102.3633967731174
31
0
0
LINE
5
307
100
AcDbEntity
8
0
100
AcDbLine
10
155.38581538588721
20
102.36339677311746
30
0
11
148.58600760257889
21
102.36339677311742
31
0
0
LINE
5
308
100
AcDbEntity
8
0
100
AcDbLine
10
126.72037461804604
20
174.36352375133913
30
0
11
137.65370795119514
21
174.36346025927566
31
0
0
LINE
5
309
100
AcDbEntity
8
0
100
AcDbLine
10
137.65370795119512
20
174.36346025927574
30
0
11
137.65367426947876
21
168.56346025937344
31
0
0
LINE
5
310
100
AcDbEntity
8
0
100
AcDbLine
10
82.986340937018184
20
168.56377772356237
30
0
11
82.986374618783572
21
174.36377772346472
31
0
0
LINE
5
311
100
AcDbEntity
8
0
100
AcDbLine
10
155.38581536988104
20
159.10625391653247
30
0
11
155.38581536988104
21
168.56282536069989
31
0
0
LINE
5
312
100
AcDbEntity
8
0
100
AcDbLine
10
49.186007602582862
20
168.56339967671775
30
0
11
50.186007602578684
21
168.56339677311738
31
0
0
LINE
5
313
100
AcDbEntity
8
0
100
AcDbLine
10
104.85334093587869
20
96.563396773117404
30
0
11
115.78667426921203
21
96.563396773117404
31
0
0
LINE
5
314
100
AcDbEntity
8
0
100
AcDbLine
10
49.185897764297515
20
130.73509421826762
30
0
11
49.185870305362727
21
121.27823707549011
31
0
0
LINE
5
315
100
AcDbEntity
8
0
100
AcDbLine
10
49.186007602582862
20
168.56339967671786
30
0
11
49.185980142761139
21
159.10623707517124
31
0
0
LINE
5
316
100
AcDbEntity
8
0
100
AcDbLine
10
43.38581538588727
20
130.73511105938948
30
0
11
43.38581538588727
21
140.19225391653234
31
0
0
LINE
5
317
100
AcDbEntity
8
0
100
AcDbLine
10
137.65367426921205
20
102.36339677311739
30
0
11
148.58600760257889
21
102.36339677311742
31
0
0
LINE
5
318
100
AcDbEntity
8
0
100
AcDbLine
10
82.986374618783572
20
174.36377772346472
30
0
11
93.919707951932523
21
174.36371423140127
31
0
0
LINE
5
319
100
AcDbEntity
8
0
100
AcDbLine
10
137.65370795119514
20
174.36346025927566
30
0
11
137.65367426947876
21
168.56346025937344
31
0
0
LINE
5
320
100
AcDbEntity
8
0
100
AcDbLine
10
50.186007602578719
20
168.56339677311738
30
0
11
61.119340937378723
21
168.56390470962498
31
0
0
LINE
5
321
100
AcDbEntity
8
0
100
AcDbLine
10
61.119340937378723
20
168.56390470962498
30
0
11
61.119374619152289
21
174.36390470952733
31
0
0
LINE
5
322
100
AcDbEntity
8
0
100
AcDbLine
10
155.38581536988113
20
159.10625391653247
30
0
11
155.38581536988113
21
168.56282536069989
31
0
0
LINE
5
323
100
AcDbEntity
8
0
100
AcDbLine
10
50.186007602578684
20
168.56339677311738
30
0
11
61.119340937378723
21
168.56390470962498
31
0
0
LINE
5
324
100
AcDbEntity
8
0
100
AcDbLine
10
49.186007602582862
20
168.56339967671786
30
0
11
50.186007602578719
21
168.56339677311738
31
0
0
LINE
5
325
100
AcDbEntity
8
0
100
AcDbLine
10
61.11937461915236
20
174.36390470952722
30
0
11
72.052707952301276
21
174.3638412174638
31
0
0
LINE
5
326
100
AcDbEntity
8
0
100
AcDbLine
10
93.919674270167548
20
168.56371423149906
30
0
11
104.85334093664963
21
168.56365073749973
31
0
0
LINE
5
327
100
AcDbEntity
8
0
100
AcDbLine
10
155.38581538588721
20
140.19196820224664
30
0
11
155.38581538588721
21
149.64911105938953
31
0
0
LINE
5
328
100
AcDbEntity
8
0
100
AcDbLine
10
104.85334093587869
20
96.563396773117404
30
0
11
115.78667426921203
21
96.563396773117404
31
0
0
LINE
5
329
100
AcDbEntity
8
0
100
AcDbLine
10
72.052674269212034
20
96.563396773117404
30
0
11
72.052674269212076
21
102.36339677311739
31
0
0
LINE
5
330
100
AcDbEntity
8
0
100
AcDbLine
10
137.65367426921205
20
96.563396773117404
30
0
11
137.65367426921205
21
102.36339677311739
31
0
0
LINE
5
331
100
AcDbEntity
8
0
100
AcDbLine
10
50.186007602578684
20
102.36339677311732
30
0
11
49.186007602578705
21
102.36339677311732
31
0
0
LINE
5
332
100
AcDbEntity
8
0
100
AcDbLine
10
49.185952682996756
20
149.64909421810825
30
0
11
49.185925224062004
21
140.19223707533072
31
0
0
LINE
5
333
100
AcDbEntity
8
0
100
AcDbLine
10
149.58581538588709
20
130.73511105938945
30
0
11
149.58581538588709
21
140.19225391653242
31
0
0
LINE
5
334
100
AcDbEntity
8
0
100
AcDbLine
10
115.78667426921203
20
96.563396773117404
30
0
11
115.78667426921207
21
102.36339677311739
31
0
0
LINE
5
335
100
AcDbEntity
8
0
100
AcDbLine
10
126.72037461804604
20
174.36352375133924
30
0
11
137.65370795119512
21
174.36346025927574
31
0
0
LINE
5
336
100
AcDbEntity
8
0
100
AcDbLine
10
72.052674269212034
20
96.563396773117404
30
0
11
72.052674269212076
21
102.36339677311739
31
0
0
LINE
5
337
100
AcDbEntity
8
0
100
AcDbLine
10
49.185897764297515
20
130.73509421826762
30
0
11
49.185870305362727
21
121.27823707549011
31
0
0
LINE
5
338
100
AcDbEntity
8
0
100
AcDbLine
10
49.185952682996685
20
149.64909421810827
30
0
11
49.185925224061933
21
140.19223707533084
31
0
0
LINE
5
339
100
AcDbEntity
8
0
100
AcDbLine
10
126.72034093587871
20
96.563396773117404
30
0
11
137.65367426921205
21
96.563396773117404
31
0
0
LINE
5
340
100
AcDbEntity
8
0
100
AcDbLine
10
155.38581536988104
20
159.10625391653247
30
0
11
149.58581538588717
21
159.10625391653244
31
0
0
LINE
5
341
100
AcDbEntity
8
0
100
AcDbLine
10
43.385815385887341
20
111.82111105938941
30
0
11
49.186035063949234
21
111.82109421786888
31
0
0
LINE
5
342
100
AcDbEntity
8
0
100
AcDbLine
10
149.58581538588709
20
111.82111105938958
30
0
11
149.58581538588709
21
121.27825391653244
31
0
0
LINE
5
343
100
AcDbEntity
8
0
100
AcDbLine
10
43.38581538588727
20
121.27825391653226
30
0
11
49.185870305362727
21
121.27823707549011
31
0
0
LINE
5
344
100
AcDbEntity
8
0
100
AcDbLine
10
155.38581538588721
20
102.36339677311746
30
0
11
155.38581538588721
21
111.82111105938951
31
0
0
LINE
5
345
100
AcDbEntity
8
0
100
AcDbLine
10
82.986340935878673
20
96.563396773117404
30
0
11
93.91967426921201
21
96.563396773117404
31
0
0
LINE
5
346
100
AcDbEntity
8
0
100
AcDbLine
10
61.119340935878732
20
102.36339677311736
30
0
11
61.119340935878697
21
96.563396773117404
31
0
0
LINE
5
347
100
AcDbEntity
8
0
100
AcDbLine
10
61.119340935878732
20
102.36339677311736
30
0
11
61.119340935878697
21
96.563396773117404
31
0
0
LINE
5
348
100
AcDbEntity
8
0
100
AcDbLine
10
61.119340937378723
20
168.56390470962498
30
0
11
61.11937461915236
21
174.36390470952722
31
0
0
LINE
5
349
100
AcDbEntity
8
0
100
AcDbLine
10
104.85334093664963
20
168.56365073749973
30
0
11
104.85337461841499
21
174.363650737402
31
0
0
LINE
5
350
100
AcDbEntity
8
0
100
AcDbLine
10
72.052707952301134
20
174.36384121746386
30
0
11
72.053007603869048
21
168.56384121562596
31
0
0
LINE
5
351
100
AcDbEntity
8
0
100
AcDbLine
10
155.38581538588721
20
102.36339677311746
30
0
11
155.38581538588721
21
111.82111105938965
31
0
0
LINE
5
352
100
AcDbEntity
8
0
100
AcDbLine
10
82.986374618783401
20
174.36377772346472
30
0
11
93.919707951932523
21
174.36371423140127
31
0
0
LINE
5
353
100
AcDbEntity
8
0
100
AcDbLine
10
126.72034093628068
20
168.56352375143715
30
0
11
126.72037461804604
21
174.36352375133913
31
0
0
LINE
5
354
100
AcDbEntity
8
0
100
AcDbLine
10
93.919707951932523
20
174.36371423140127
30
0
11
93.919674270167405
21
168.5637142314992
31
0
0
LINE
5
355
100
AcDbEntity
8
0
100
AcDbLine
10
126.72034093587871
20
96.563396773117404
30
0
11
137.65367426921205
21
96.563396773117404
31
0
0
LINE
5
356
100
AcDbEntity
8
0
100
AcDbLine
10
115.78670795156373
20
174.36358724533849
30
0
11
115.78667426979834
21
168.56358724543642
31
0
0
LINE
5
357
100
AcDbEntity
8
0
100
AcDbLine
10
43.38581538588727
20
111.82111105938941
30
0
11
43.38581538588727
21
121.27825391653226
31
0
0
LINE
5
358
100
AcDbEntity
8
0
100
AcDbLine
10
61.119374619152289
20
174.36390470952733
30
0
11
72.052707952301134
21
174.36384121746386
31
0
0
LINE
5
359
100
AcDbEntity
8
0
100
AcDbLine
10
149.58581538588709
20
111.82111105938944
30
0
11
149.58581538588726
21
121.27825391653244
31
0
0
LINE
5
360
100
AcDbEntity
8
0
100
AcDbLine
10
115.78667426979834
20
168.56358724543642
30
0
11
126.72034093628068
21
168.56352375143706
31
0
0
LINE
5
361
100
AcDbEntity
8
0
100
AcDbLine
10
155.38581536988104
20
168.56282536069989
30
0
11
148.58600760257875
21
168.5633967731174
31
0
0
LINE
5
362
100
AcDbEntity
8
0
100
AcDbLine
10
72.053007603869048
20
168.56384121562596
30
0
11
82.986340937017999
21
168.56377772356251
31
0
0
LINE
5
363
100
AcDbEntity
8
0
100
AcDbLine
10
115.78700760257867
20
102.36339677311734
30
0
11
126.72034093587871
21
102.3633967731174
31
0
0
LINE
5
364
100
AcDbEntity
8
0
100
AcDbLine
10
149.58581538588709
20
111.82111105938958
30
0
11
155.38581538588721
21
111.82111105938965
31
0
0
LINE
5
365
100
AcDbEntity
8
0
100
AcDbLine
10
43.38581538588727
20
140.19225391653245
30
0
11
49.185925224061933
21
140.19223707533084
31
0
0
LINE
5
366
100
AcDbEntity
8
0
100
AcDbLine
10
137.65367426921205
20
96.563396773117404
30
0
11
137.65367426921205
21
102.36339677311739
31
0
0
LINE
5
367
100
AcDbEntity
8
0
100
AcDbLine
10
43.38581538588727
20
130.73511105938948
30
0
11
49.185897764297515
21
130.73509421826762
31
0
0
LINE
5
368
100
AcDbEntity
8
0
100
AcDbLine
10
72.053007602578703
20
102.36339677311734
30
0
11
82.986340935878673
21
102.3633967731174
31
0
0
LINE
5
369
100
AcDbEntity
8
0
100
AcDbLine
10
104.85337461841499
20
174.363650737402
30
0
11
115.78670795156387
21
174.36358724533849
31
0
0
LINE
5
370
100
AcDbEntity
8
0
100
AcDbLine
10
93.919707951932523
20
174.36371423140127
30
0
11
93.919674270167548
21
168.56371423149906
31
0
0
LINE
5
371
100
AcDbEntity
8
0
100
AcDbLine
10
155.38581538588721
20
140.19196820224664
30
0
11
149.58581538588709
21
140.19225391653242
31
0
0
LINE
5
372
100
AcDbEntity
8
0
100
AcDbLine
10
126.72034093587871
20
102.3633967731174
30
0
11
126.72034093587871
21
96.563396773117404
31
0
0
LINE
5
373
100
AcDbEntity
8
0
100
AcDbLine
10
50.186007602578684
20
102.36339677311732
30
0
11
61.119340935878732
21
102.36339677311736
31
0
0
LINE
5
374
100
AcDbEntity
8
0
100
AcDbLine
10
104.85334093587869
20
102.3633967731174
30
0
11
104.85334093587869
21
96.563396773117404
31
0
0
LINE
5
375
100
AcDbEntity
8
0
100
AcDbLine
10
43.38581538588727
20
121.27825391653226
30
0
11
49.185870305362727
21
121.27823707549011
31
0
0
LINE
5
376
100
AcDbEntity
8
0
100
AcDbLine
10
82.986340935878673
20
96.563396773117404
30
0
11
93.91967426921201
21
96.563396773117404
31
0
0
LINE
5
377
100
AcDbEntity
8
0
100
AcDbLine
10
155.38581536988113
20
159.10625391653247
30
0
11
149.58581538588703
21
159.10625391653244
31
0
0
LINE
5
378
100
AcDbEntity
8
0
100
AcDbLine
10
155.38581538588721
20
149.64911105938953
30
0
11
149.58581538588726
21
149.64911105938938
31
0
0
LINE
5
379
100
AcDbEntity
8
0
100
AcDbLine
10
50.186007602578684
20
102.36339677311732
30
0
11
49.186007602578705
21
102.36339677311732
31
0
0
LINE
5
380
100
AcDbEntity
8
0
100
AcDbLine
10
126.72034093587871
20
102.3633967731174
30
0
11
126.72034093587871
21
96.563396773117404
31
0
0
LINE
5
381
100
AcDbEntity
8
0
100
AcDbLine
10
149.58581538588709
20
111.82111105938944
30
0
11
155.38581538588721
21
111.82111105938951
31
0
0
LINE
5
382
100
AcDbEntity
8
0
100
AcDbLine
10
137.65367426947876
20
168.56346025937344
30
0
11
148.58600760257875
21
168.5633967731174
31
0
0
LINE
5
383
100
AcDbEntity
8
0
100
AcDbLine
10
149.58581538588709
20
130.7351110593896
30
0
11
149.58581538588709
21
140.19225391653242
31
0
0
LINE
5
384
100
AcDbEntity
8
0
100
AcDbLine
10
104.85337461841493
20
174.363650737402
30
0
11
115.78670795156373
21
174.36358724533849
31
0
0
LINE
5
385
100
AcDbEntity
8
0
100
AcDbLine
10
137.65367426947876
20
168.56346025937344
30
0
11
148.58600760257875
21
168.5633967731174
31
0
0
LINE
5
386
100
AcDbEntity
8
0
100
AcDbLine
10
115.78700760257867
20
102.36339677311734
30
0
11
126.72034093587871
21
102.3633967731174
31
0
0
LINE
5
387
100
AcDbEntity
8
0
100
AcDbLine
10
82.986340935878673
20
102.3633967731174
30
0
11
82.986340935878673
21
96.563396773117404
31
0
0
LINE
5
388
100
AcDbEntity
8
0
100
AcDbLine
10
43.385815385887128
20
149.64911105938961
30
0
11
43.38581538588727
21
159.10625391653235
31
0
0
LINE
5
389
100
AcDbEntity
8
0
100
AcDbLine
10
43.38581538588727
20
130.73511105938951
30
0
11
49.185897764297515
21
130.73509421826762
31
0
0
LINE
5
390
100
AcDbEntity
8
0
100
AcDbLine
10
115.78670795156387
20
174.36358724533849
30
0
11
115.78667426979848
21
168.56358724543642
31
0
0
LINE
5
391
100
AcDbEntity
8
0
100
AcDbLine
10
93.920007602578693
20
102.36339677311734
30
0
11
104.85334093587869
21
102.3633967731174
31
0
0
LINE
5
392
100
AcDbEntity
8
0
100
AcDbLine
10
93.920007602578693
20
102.36339677311734
30
0
11
104.85334093587869
21
102.3633967731174
31
0
0
LINE
5
393
100
AcDbEntity
8
0
100
AcDbLine
10
93.919674270167405
20
168.5637142314992
30
0
11
104.85334093664957
21
168.56365073749987
31
0
0
LINE
5
394
100
AcDbEntity
8
0
100
AcDbLine
10
155.38581538588721
20
130.73511105938951
30
0
11
149.58581538588709
21
130.73511105938945
31
0
0
LINE
5
395
100
AcDbEntity
8
0
100
AcDbLine
10
149.58581538588709
20
149.64911105938938
30
0
11
149.58581538588703
21
159.10625391653244
31
0
0
LINE
5
396
100
AcDbEntity
8
0
100
AcDbLine
10
115.78667426979848
20
168.56358724543642
30
0
11
126.72034093628068
21
168.56352375143715
31
0
0
LINE
5
397
100
AcDbEntity
8
0
100
AcDbLine
10
49.186035063949234
20
111.82109421786888
30
0
11
49.186007602578705
21
102.36339677311732
31
0
0
LINE
5
398
100
AcDbEntity
8
0
100
AcDbLine
10
93.91967426921201
20
96.563396773117404
30
0
11
93.919674269212095
21
102.36339677311739
31
0
0
LINE
5
399
100
AcDbEntity
8
0
100
AcDbLine
10
115.78667426921203
20
96.563396773117404
30
0
11
115.78667426921207
21
102.36339677311739
31
0
0
LINE
5
400
100
AcDbEntity
8
0
100
AcDbLine
10
50.186007602578684
20
102.36339677311732
30
0
11
61.119340935878732
21
102.36339677311736
31
0
0
LINE
5
401
100
AcDbEntity
8
0
100
AcDbLine
10
82.986340935878673
20
102.3633967731174
30
0
11
82.986340935878673
21
96.563396773117404
31
0
0
LINE
5
402
100
AcDbEntity
8
0
100
AcDbLine
10
43.38581538588727
20
159.10625391653244
30
0
11
49.185980142761139
21
159.10623707517135
31
0
0
LINE
5
403
100
AcDbEntity
8
0
100
AcDbLine
10
104.85334093664957
20
168.56365073749987
30
0
11
104.85337461841493
21
174.363650737402
31
0
0
LINE
5
404
100
AcDbEntity
8
0
100
AcDbLine
10
149.58581538588726
20
149.64911105938938
30
0
11
149.58581538588717
21
159.10625391653244
31
0
0
LINE
5
405
100
AcDbEntity
8
0
100
AcDbLine
10
93.91967426921201
20
96.563396773117404
30
0
11
93.919674269212095
21
102.36339677311739
31
0
0
LINE
5
406
100
AcDbEntity
8
0
100
AcDbLine
10
155.38581538588721
20
149.64911105938953
30
0
11
149.58581538588709
21
149.64911105938938
31
0
0
LINE
5
407
100
AcDbEntity
8
0
100
AcDbLine
10
43.385815385887199
20
149.64911105938964
30
0
11
49.185952682996685
21
149.64909421810827
31
0
0
LINE
5
408
100
AcDbEntity
8
0
100
AcDbLine
10
155.38581538588721
20
121.27796820224663
30
0
11
155.38581538588721
21
130.73511105938965
31
0
0
LINE
5
409
100
AcDbEntity
8
0
100
AcDbLine
10
49.186007602582862
20
168.56339967671775
30
0
11
49.185980142761139
21
159.10623707517135
31
0
0
LINE
5
410
100
AcDbEntity
8
0
100
AcDbLine
10
43.385815385887199
20
149.64911105938964
30
0
11
43.38581538588727
21
159.10625391653244
31
0
0
LINE
5
411
100
AcDbEntity
8
0
100
AcDbLine
10
155.38581538588721
20
121.27796820224663
30
0
11
149.58581538588709
21
121.27825391653244
31
0
0
LINE
5
412
100
AcDbEntity
8
0
100
AcDbLine
10
43.385815385887341
20
111.82111105938941
30
0
11
43.38581538588727
21
121.27825391653226
31
0
0
LINE
5
413
100
AcDbEntity
8
0
100
AcDbLine
10
43.38581538588727
20
130.73511105938951
30
0
11
43.38581538588727
21
140.19225391653245
31
0
0
LINE
5
414
100
AcDbEntity
8
0
100
AcDbLine
10
61.119340935878697
20
96.563396773117404
30
0
11
72.052674269212034
21
96.563396773117404
31
0
0
LINE
5
415
100
AcDbEntity
8
0
100
AcDbLine
10
43.38581538588727
20
111.82111105938941
30
0
11
49.186035063949163
21
111.82109421786899
31
0
0
LINE
5
416
100
AcDbEntity
8
0
100
AcDbLine
10
155.38581538588721
20
140.19196820224664
30
0
11
149.58581538588709
21
140.19225391653242
31
0
0
LINE
5
417
100
AcDbEntity
8
0
100
AcDbLine
10
155.38581538588721
20
130.73511105938965
30
0
11
149.58581538588709
21
130.7351110593896
31
0
0
LINE
5
418
100
AcDbEntity
8
0
100
AcDbLine
10
72.052707952301276
20
174.3638412174638
30
0
11
72.05300760386919
21
168.56384121562584
31
0
0
LINE
5
419
100
AcDbEntity
8
0
100
AcDbLine
10
-159.21332573078797
20
-53.436603226882795
30
0
11
-159.21332573078789
21
-47.636603226882599
31
0
0
LINE
5
420
100
AcDbEntity
8
0
100
AcDbLine
10
-137.34629204880494
20
24.363460259275627
30
0
11
-137.34632573052127
21
18.563460259373485
31
0
0
LINE
5
421
100
AcDbEntity
8
0
100
AcDbLine
10
-181.08032573078793
20
-53.436603226882795
30
0
11
-181.08032573078788
21
-47.636603226882599
31
0
0
LINE
5
422
100
AcDbEntity
8
0
100
AcDbLine
10
-231.61418461411296
20
-19.264888940610518
30
0
11
-231.61418461411296
21
-9.8077460834676344
31
0
0
LINE
5
423
100
AcDbEntity
8
0
100
AcDbLine
10
-125.4141846141129
20
-19.264888940610376
30
0
11
-125.4141846141129
21
-9.8077460834675634
31
0
0
LINE
5
424
100
AcDbEntity
8
0
100
AcDbLine
10
-125.4141846141129
20
-19.264888940610376
30
0
11
-125.4141846141129
21
-9.8077460834675634
31
0
0
LINE
5
425
100
AcDbEntity
8
0
100
AcDbLine
10
-192.01365906412127
20
-53.436603226882795
30
0
11
-181.08032573078793
21
-53.436603226882795
31
0
0
LINE
5
426
100
AcDbEntity
8
0
100
AcDbLine
10
-170.61399239741661
20
-22.636031797854884
30
0
11
-166.61399239741661
21
-22.636031797854955
31
0
0
LINE
5
427
100
AcDbEntity
8
0
100
AcDbLine
10
-224.81399239742132
20
-47.636603226882599
30
0
11
-213.88065906412129
21
-47.636603226882798
31
0
0
LINE
5
428
100
AcDbEntity
8
0
100
AcDbLine
10
-125.4141846141129
20
-38.17888894061042
30
0
11
-119.61418461411277
21
-38.178888940610491
31
0
0
LINE
5
429
100
AcDbEntity
8
0
100
AcDbLine
10
-231.61418461411296
20
-0.35088894061047426
30
0
11
-225.81404731700331
21
-0.3509057818918393
31
0
0
LINE
5
430
100
AcDbEntity
8
0
100
AcDbLine
10
-231.61418461411296
20
-9.8077460834676344
30
0
11
-225.81407477593808
21
-9.8077629246692766
31
0
0
LINE
5
431
100
AcDbEntity
8
0
100
AcDbLine
10
-137.3463257307879
20
-47.636603226882599
30
0
11
-126.41399239742114
21
-47.636603226882599
31
0
0
LINE
5
432
100
AcDbEntity
8
0
100
AcDbLine
10
-225.81399239741722
20
18.563399676717793
30
0
11
-225.81401985723892
21
9.1062370751712507
31
0
0
LINE
5
433
100
AcDbEntity
8
0
100
AcDbLine
10
-231.61418461411287
20
-28.72174608346775
30
0
11
-225.81412969463727
21
-28.721762924509875
31
0
0
LINE
5
434
100
AcDbEntity
8
0
100
AcDbLine
10
-213.88062538084782
20
24.363904709527233
30
0
11
-202.94729204769885
21
24.363841217463786
31
0
0
LINE
5
435
100
AcDbEntity
8
0
100
AcDbLine
10
-225.81399239741722
20
18.563399676717793
30
0
11
-225.81401985723892
21
9.1062370751712507
31
0
0
LINE
5
436
100
AcDbEntity
8
0
100
AcDbLine
10
-202.9469923974213
20
-47.636603226882599
30
0
11
-192.01365906412127
21
-47.636603226882798
31
0
0
LINE
5
437
100
AcDbEntity
8
0
100
AcDbLine
10
-175.61399239742116
20
-22.636031797858749
30
0
11
-170.61399239741661
21
-22.636031797854884
31
0
0
LINE
5
438
100
AcDbEntity
8
0
100
AcDbLine
10
-192.01365906298201
20
18.563777723562396
30
0
11
-192.01362538121657
21
24.363777723464608
31
0
0
LINE
5
439
100
AcDbEntity
8
0
100
AcDbLine
10
-181.07999239742131
20
-47.636603226882599
30
0
11
-170.14665906412131
21
-47.636603226882798
31
0
0
LINE
5
440
100
AcDbEntity
8
0
100
AcDbLine
10
-148.27965906371932
20
18.563523751437003
30
0
11
-148.27962538195396
21
24.363523751339144
31
0
0
LINE
5
441
100
AcDbEntity
8
0
100
AcDbLine
10
-119.61418461411277
20
-47.636603226882599
30
0
11
-126.41399239742114
21
-47.636603226882599
31
0
0
LINE
5
442
100
AcDbEntity
8
0
100
AcDbLine
10
-148.27962538195396
20
24.363523751339144
30
0
11
-137.34629204880494
21
24.363460259275627
31
0
0
LINE
5
443
100
AcDbEntity
8
0
100
AcDbLine
10
-125.4141846141129
20
-38.17888894061042
30
0
11
-125.4141846141129
21
-28.721746083467536
31
0
0
LINE
5
444
100
AcDbEntity
8
0
100
AcDbLine
10
-137.34632573052127
20
18.563460259373485
30
0
11
-126.41399239742128
21
18.563396773117447
31
0
0
LINE
5
445
100
AcDbEntity
8
0
100
AcDbLine
10
-180.61399239742116
20
-22.636031797858749
30
0
11
-187.61399239742119
21
-22.636031797858749
31
0
0
LINE
5
446
100
AcDbEntity
8
0
100
AcDbLine
10
-125.4141846141129
20
-38.17888894061042
30
0
11
-125.4141846141129
21
-28.721746083467536
31
0
0
LINE
5
447
100
AcDbEntity
8
0
100
AcDbLine
10
-225.81404731700331
20
-0.3509057818918393
30
0
11
-225.81407477593808
21
-9.8077629246692766
31
0
0
CIRCLE
5
448
100
AcDbEntity
8
0
100
AcDbCircle
10
-166.61399239742116
20
-22.636031797858749
30
0
40
1.4999999999999858
210
0
220
0
230
1
0
LINE
5
449
100
AcDbEntity
8
0
100
AcDbLine
10
-181.08032572983262
20
18.563714231499091
30
0
11
-170.14665906335063
21
18.5636507374997
31
0
0
LINE
5
450
100
AcDbEntity
8
0
100
AcDbLine
10
-119.61418461411277
20
-0.35088894061047426
30
0
11
-125.4141846141129
21
-0.35088894061040321
31
0
0
CIRCLE
5
451
100
AcDbEntity
8
0
100
AcDbCircle
10
-187.61399239742119
20
-22.636031797858749
30
0
40
1.5000000000000036
210
0
220
0
230
1
0
LINE
5
452
100
AcDbEntity
8
0
100
AcDbLine
10
-119.61418461411277
20
-28.722031797753402
30
0
11
-125.4141846141129
21
-28.721746083467536
31
0
0
LINE
5
453
100
AcDbEntity
8
0
100
AcDbLine
10
-137.34632573052127
20
18.563460259373485
30
0
11
-126.41399239742128
21
18.563396773117447
31
0
0
CIRCLE
5
454
100
AcDbEntity
8
0
100
AcDbCircle
10
-175.61399239742116
20
-22.636031797858749
30
0
40
5.0000000000000053
210
0
220
0
230
1
0
LINE
5
455
100
AcDbEntity
8
0
100
AcDbLine
10
-119.61418463011896
20
9.1062539165324807
30
0
11
-125.41418461411283
21
9.1062539165324097
31
0
0
LINE
5
456
100
AcDbEntity
8
0
100
AcDbLine
10
-125.4141846141129
20
-0.35088894061040321
30
0
11
-125.41418461411283
21
9.1062539165324097
31
0
0
LINE
5
457
100
AcDbEntity
8
0
100
AcDbLine
10
-159.21329204843627
20
24.363587245338394
30
0
11
-159.21332573020166
21
18.563587245436395
31
0
0
LINE
5
458
100
AcDbEntity
8
0
100
AcDbLine
10
-181.08029204806755
20
24.363714231401161
30
0
11
-181.08032572983262
21
18.563714231499091
31
0
0
LINE
5
459
100
AcDbEntity
8
0
100
AcDbLine
10
-231.61418461411287
20
-38.178888940610562
30
0
11
-231.61418461411287
21
-28.72174608346775
31
0
0
LINE
5
460
100
AcDbEntity
8
0
100
AcDbLine
10
-170.14662538158524
20
24.363650737401912
30
0
11
-159.21329204843627
21
24.363587245338394
31
0
0
LINE
5
461
100
AcDbEntity
8
0
100
AcDbLine
10
-159.21332573020166
20
18.563587245436395
30
0
11
-148.27965906371932
21
18.563523751437003
31
0
0
LINE
5
462
100
AcDbEntity
8
0
100
AcDbLine
10
-119.61418463011896
20
18.562825360699975
30
0
11
-126.41399239742128
21
18.563396773117447
31
0
0
LINE
5
463
100
AcDbEntity
8
0
100
AcDbLine
10
-119.61418461411277
20
-9.8080317977533582
30
0
11
-125.4141846141129
21
-9.8077460834675634
31
0
0
LINE
5
464
100
AcDbEntity
8
0
100
AcDbLine
10
-119.61418463011896
20
9.1062539165324807
30
0
11
-125.41418461411283
21
9.1062539165324097
31
0
0
LINE
5
465
100
AcDbEntity
8
0
100
AcDbLine
10
-181.08032572983262
20
18.563714231499091
30
0
11
-170.14665906335063
21
18.5636507374997
31
0
0
LINE
5
466
100
AcDbEntity
8
0
100
AcDbLine
10
-159.21332573020166
20
18.563587245436395
30
0
11
-148.27965906371932
21
18.563523751437003
31
0
0
LINE
5
467
100
AcDbEntity
8
0
100
AcDbLine
10
-148.27962538195396
20
24.363523751339144
30
0
11
-137.34629204880494
21
24.363460259275627
31
0
0
LINE
5
468
100
AcDbEntity
8
0
100
AcDbLine
10
-170.14662538158524
20
24.363650737401912
30
0
11
-159.21329204843627
21
24.363587245338394
31
0
0
LINE
5
469
100
AcDbEntity
8
0
100
AcDbLine
10
-148.27965906412129
20
-47.636603226882798
30
0
11
-148.27965906412129
21
-53.436603226882795
31
0
0
LINE
5
470
100
AcDbEntity
8
0
100
AcDbLine
10
-225.81399239741722
20
18.563399676717793
30
0
11
-224.81399239742132
21
18.563396773117326
31
0
0
LINE
5
471
100
AcDbEntity
8
0
100
AcDbLine
10
-119.61418461411277
20
-9.8080317977533582
30
0
11
-125.4141846141129
21
-9.8077460834675634
31
0
0
LINE
5
472
100
AcDbEntity
8
0
100
AcDbLine
10
-148.27965906371932
20
18.563523751437003
30
0
11
-148.27962538195396
21
24.363523751339144
31
0
0
LINE
5
473
100
AcDbEntity
8
0
100
AcDbLine
10
-231.61418461411296
20
-0.35088894061047426
30
0
11
-231.61418461411296
21
9.1062539165323386
31
0
0
LINE
5
474
100
AcDbEntity
8
0
100
AcDbLine
10
-119.61418461411277
20
-47.636603226882599
30
0
11
-126.41399239742114
21
-47.636603226882599
31
0
0
CIRCLE
5
475
100
AcDbEntity
8
0
100
AcDbCircle
10
-187.61399239742119
20
-22.636031797858749
30
0
40
1.5000000000000036
210
0
220
0
230
1
0
LINE
5
476
100
AcDbEntity
8
0
100
AcDbLine
10
-213.88065906412129
20
-53.436603226882795
30
0
11
-202.94732573078795
21
-53.436603226882795
31
0
0
CIRCLE
5
477
100
AcDbEntity
8
0
100
AcDbCircle
10
-166.61399239742116
20
-22.636031797858749
30
0
40
1.4999999999999858
210
0
220
0
230
1
0
LINE
5
478
100
AcDbEntity
8
0
100
AcDbLine
10
-181.08029204806755
20
24.363714231401161
30
0
11
-181.08032572983262
21
18.563714231499091
31
0
0
LINE
5
479
100
AcDbEntity
8
0
100
AcDbLine
10
-231.61418461411296
20
-0.35088894061047426
30
0
11
-225.81404731700331
21
-0.3509057818918393
31
0
0
LINE
5
480
100
AcDbEntity
8
0
100
AcDbLine
10
-192.01365906412127
20
-47.636603226882798
30
0
11
-192.01365906412127
21
-53.436603226882795
31
0
0
LINE
5
481
100
AcDbEntity
8
0
100
AcDbLine
10
-213.88062538084782
20
24.363904709527233
30
0
11
-202.94729204769885
21
24.363841217463786
31
0
0
LINE
5
482
100
AcDbEntity
8
0
100
AcDbLine
10
-175.61399239742116
20
-22.636031797858749
30
0
11
-180.61399239742116
21
-22.636031797858749
31
0
0
LINE
5
483
100
AcDbEntity
8
0
100
AcDbLine
10
-202.94732573078795
20
-53.436603226882795
30
0
11
-202.9473257307879
21
-47.636603226882599
31
0
0
LINE
5
484
100
AcDbEntity
8
0
100
AcDbLine
10
-170.14665906412131
20
-53.436603226882795
30
0
11
-159.21332573078797
21
-53.436603226882795
31
0
0
LINE
5
485
100
AcDbEntity
8
0
100
AcDbLine
10
-231.61418461411296
20
-0.35088894061047426
30
0
11
-231.61418461411296
21
9.1062539165323386
31
0
0
LINE
5
486
100
AcDbEntity
8
0
100
AcDbLine
10
-192.01362538121657
20
24.363777723464608
30
0
11
-181.08029204806755
21
24.363714231401161
31
0
0
LINE
5
487
100
AcDbEntity
8
0
100
AcDbLine
10
-119.61418461411277
20
-47.636603226882599
30
0
11
-119.61418461411277
21
-38.178888940610491
31
0
0
LINE
5
488
100
AcDbEntity
8
0
100
AcDbLine
10
-119.61418463011896
20
9.1062539165324807
30
0
11
-119.61418463011896
21
18.562825360699975
31
0
0
CIRCLE
5
489
100
AcDbEntity
8
0
100
AcDbCircle
10
-175.61399239742116
20
-22.636031797858749
30
0
40
5.0000000000000053
210
0
220
0
230
1
0
LINE
5
490
100
AcDbEntity
8
0
100
AcDbLine
10
-224.81399239742132
20
18.563396773117326
30
0
11
-213.88065906262131
21
18.563904709625021
31
0
0
LINE
5
491
100
AcDbEntity
8
0
100
AcDbLine
10
-119.61418461411277
20
-19.264888940610518
30
0
11
-125.4141846141129
21
-19.264888940610376
31
0
0
LINE
5
492
100
AcDbEntity
8
0
100
AcDbLine
10
-148.27965906412129
20
-53.436603226882795
30
0
11
-137.34632573078795
21
-53.436603226882795
31
0
0
LINE
5
493
100
AcDbEntity
8
0
100
AcDbLine
10
-213.88065906412129
20
-47.636603226882798
30
0
11
-213.88065906412129
21
-53.436603226882795
31
0
0
LINE
5
494
100
AcDbEntity
8
0
100
AcDbLine
10
-125.4141846141129
20
-0.35088894061040321
30
0
11
-125.41418461411283
21
9.1062539165324097
31
0
0
LINE
5
495
100
AcDbEntity
8
0
100
AcDbLine
10
-192.01362538121657
20
24.363777723464608
30
0
11
-181.08029204806755
21
24.363714231401161
31
0
0
LINE
5
496
100
AcDbEntity
8
0
100
AcDbLine
10
-231.61418461411296
20
-19.264888940610518
30
0
11
-225.81410223570245
21
-19.264905781732438
31
0
0
LINE
5
497
100
AcDbEntity
8
0
100
AcDbLine
10
-159.21299239742132
20
-47.636603226882599
30
0
11
-148.27965906412129
21
-47.636603226882798
31
0
0
LINE
5
498
100
AcDbEntity
8
0
100
AcDbLine
10
-202.94699239613095
20
18.563841215625843
30
0
11
-192.01365906298201
21
18.563777723562396
31
0
0
LINE
5
499
100
AcDbEntity
8
0
100
AcDbLine
10
-231.61418461411287
20
-38.178888940610562
30
0
11
-225.81396493605084
21
-38.178905782131096
31
0
0
LINE
5
500
100
AcDbEntity
8
0
100
AcDbLine
10
-231.61418461411296
20
-9.8077460834676344
30
0
11
-225.81407477593808
21
-9.8077629246692766
31
0
0
LINE
5
501
100
AcDbEntity
8
0
100
AcDbLine
10
-224.81399239742132
20
18.563396773117326
30
0
11
-213.88065906262131
21
18.563904709625021
31
0
0
LINE
5
502
100
AcDbEntity
8
0
100
AcDbLine
10
-170.14665906412131
20
-47.636603226882798
30
0
11
-170.14665906412131
21
-53.436603226882795
31
0
0
LINE
5
503
100
AcDbEntity
8
0
100
AcDbLine
10
-119.61418463011896
20
18.562825360699975
30
0
11
-126.41399239742128
21
18.563396773117447
31
0
0
LINE
5
504
100
AcDbEntity
8
0
100
AcDbLine
10
-192.01365906412127
20
-53.436603226882795
30
0
11
-181.08032573078793
21
-53.436603226882795
31
0
0
LINE
5
505
100
AcDbEntity
8
0
100
AcDbLine
10
-159.21299239742132
20
-47.636603226882599
30
0
11
-148.27965906412129
21
-47.636603226882798
31
0
0
LINE
5
506
100
AcDbEntity
8
0
100
AcDbLine
10
-231.61418461411296
20
-19.264888940610518
30
0
11
-231.61418461411296
21
-9.8077460834676344
31
0
0
LINE
5
507
100
AcDbEntity
8
0
100
AcDbLine
10
-202.94699239613095
20
18.563841215625843
30
0
11
-192.01365906298201
21
18.563777723562396
31
0
0
LINE
5
508
100
AcDbEntity
8
0
100
AcDbLine
10
-225.81410223570245
20
-19.264905781732438
30
0
11
-225.81412969463727
21
-28.721762924509875
31
0
0
LINE
5
509
100
AcDbEntity
8
0
100
AcDbLine
10
-231.61418461411287
20
-38.178888940610562
30
0
11
-231.61418461411287
21
-28.72174608346775
31
0
0
LINE
5
510
100
AcDbEntity
8
0
100
AcDbLine
10
-192.01365906298201
20
18.563777723562396
30
0
11
-192.01362538121657
21
24.363777723464608
31
0
0
LINE
5
511
100
AcDbEntity
8
0
100
AcDbLine
10
-224.81399239742132
20
-47.636603226882599
30
0
11
-225.81399239742126
21
-47.636603226882599
31
0
0
LINE
5
512
100
AcDbEntity
8
0
100
AcDbLine
10
-213.88065906262131
20
18.563904709625021
30
0
11
-213.88062538084782
21
24.363904709527233
31
0
0
LINE
5
513
100
AcDbEntity
8
0
100
AcDbLine
10
-119.61418461411277
20
-19.264888940610518
30
0
11
-125.4141846141129
21
-19.264888940610376
31
0
0
LINE
5
514
100
AcDbEntity
8
0
100
AcDbLine
10
-225.81396493605084
20
-38.178905782131096
30
0
11
-225.81399239742126
21
-47.636603226882599
31
0
0
LINE
5
515
100
AcDbEntity
8
0
100
AcDbLine
10
-225.81410223570245
20
-19.264905781732438
30
0
11
-225.81412969463727
21
-28.721762924509875
31
0
0
LINE
5
516
100
AcDbEntity
8
0
100
AcDbLine
10
-181.08032573078793
20
-53.436603226882795
30
0
11
-181.08032573078788
21
-47.636603226882599
31
0
0
LINE
5
517
100
AcDbEntity
8
0
100
AcDbLine
10
-170.14665906335063
20
18.5636507374997
30
0
11
-170.14662538158524
21
24.363650737401912
31
0
0
LINE
5
518
100
AcDbEntity
8
0
100
AcDbLine
10
-137.3463257307879
20
-47.636603226882599
30
0
11
-126.41399239742114
21
-47.636603226882599
31
0
0
LINE
5
519
100
AcDbEntity
8
0
100
AcDbLine
10
-180.61399239742116
20
-22.636031797858749
30
0
11
-187.61399239742119
21
-22.636031797858749
31
0
0
LINE
5
520
100
AcDbEntity
8
0
100
AcDbLine
10
-225.81404731700331
20
-0.3509057818918393
30
0
11
-225.81407477593808
21
-9.8077629246692766
31
0
0
LINE
5
521
100
AcDbEntity
8
0
100
AcDbLine
10
-137.34632573078795
20
-53.436603226882795
30
0
11
-137.3463257307879
21
-47.636603226882599
31
0
0
LINE
5
522
100
AcDbEntity
8
0
100
AcDbLine
10
-231.61418461411296
20
9.1062539165323386
30
0
11
-225.81401985723892
21
9.1062370751712507
31
0
0
LINE
5
523
100
AcDbEntity
8
0
100
AcDbLine
10
-231.61418461411296
20
9.1062539165323386
30
0
11
-225.81401985723892
21
9.1062370751712507
31
0
0
LINE
5
524
100
AcDbEntity
8
0
100
AcDbLine
10
-202.94732573078795
20
-53.436603226882795
30
0
11
-202.9473257307879
21
-47.636603226882599
31
0
0
LINE
5
525
100
AcDbEntity
8
0
100
AcDbLine
10
-119.61418461411277
20
-0.35088894061047426
30
0
11
-125.4141846141129
21
-0.35088894061040321
31
0
0
LINE
5
526
100
AcDbEntity
8
0
100
AcDbLine
10
-159.21332573078797
20
-53.436603226882795
30
0
11
-159.21332573078789
21
-47.636603226882599
31
0
0
LINE
5
527
100
AcDbEntity
8
0
100
AcDbLine
10
-224.81399239742132
20
-47.636603226882599
30
0
11
-213.88065906412129
21
-47.636603226882798
31
0
0
LINE
5
528
100
AcDbEntity
8
0
100
AcDbLine
10
-225.81399239741722
20
18.563399676717793
30
0
11
-224.81399239742132
21
18.563396773117326
31
0
0
LINE
5
529
100
AcDbEntity
8
0
100
AcDbLine
10
-231.61418461411287
20
-28.72174608346775
30
0
11
-225.81412969463727
21
-28.721762924509875
31
0
0
LINE
5
530
100
AcDbEntity
8
0
100
AcDbLine
10
-175.61399239742116
20
-22.636031797858749
30
0
11
-170.61399239741661
21
-22.636031797854884
31
0
0
LINE
5
531
100
AcDbEntity
8
0
100
AcDbLine
10
-192.01365906412127
20
-47.636603226882798
30
0
11
-192.01365906412127
21
-53.436603226882795
31
0
0
LINE
5
532
100
AcDbEntity
8
0
100
AcDbLine
10
-125.4141846141129
20
-38.17888894061042
30
0
11
-119.61418461411277
21
-38.178888940610491
31
0
0
LINE
5
533
100
AcDbEntity
8
0
100
AcDbLine
10
-202.94729204769885
20
24.363841217463786
30
0
11
-202.94699239613095
21
18.563841215625843
31
0
0
LINE
5
534
100
AcDbEntity
8
0
100
AcDbLine
10
-148.27965906412129
20
-53.436603226882795
30
0
11
-137.34632573078795
21
-53.436603226882795
31
0
0
LINE
5
535
100
AcDbEntity
8
0
100
AcDbLine
10
-213.88065906412129
20
-47.636603226882798
30
0
11
-213.88065906412129
21
-53.436603226882795
31
0
0
LINE
5
536
100
AcDbEntity
8
0
100
AcDbLine
10
-119.61418461411277
20
-28.722031797753402
30
0
11
-119.61418461411277
21
-19.264888940610518
31
0
0
LINE
5
537
100
AcDbEntity
8
0
100
AcDbLine
10
-202.94729204769885
20
24.363841217463786
30
0
11
-202.94699239613095
21
18.563841215625843
31
0
0
LINE
5
538
100
AcDbEntity
8
0
100
AcDbLine
10
-119.61418461411277
20
-47.636603226882599
30
0
11
-119.61418461411277
21
-38.178888940610491
31
0
0
LINE
5
539
100
AcDbEntity
8
0
100
AcDbLine
10
-224.81399239742132
20
-47.636603226882599
30
0
11
-225.81399239742126
21
-47.636603226882599
31
0
0
LINE
5
540
100
AcDbEntity
8
0
100
AcDbLine
10
-175.61399239742116
20
-22.636031797858749
30
0
11
-180.61399239742116
21
-22.636031797858749
31
0
0
LINE
5
541
100
AcDbEntity
8
0
100
AcDbLine
10
-119.61418461411277
20
-9.8080317977533582
30
0
11
-119.61418461411277
21
-0.35088894061047426
31
0
0
LINE
5
542
100
AcDbEntity
8
0
100
AcDbLine
10
-148.27965906412129
20
-47.636603226882798
30
0
11
-148.27965906412129
21
-53.436603226882795
31
0
0
LINE
5
543
100
AcDbEntity
8
0
100
AcDbLine
10
-119.61418463011896
20
9.1062539165324807
30
0
11
-119.61418463011896
21
18.562825360699975
31
0
0
LINE
5
544
100
AcDbEntity
8
0
100
AcDbLine
10
-119.61418461411277
20
-9.8080317977533582
30
0
11
-119.61418461411277
21
-0.35088894061047426
31
0
0
LINE
5
545
100
AcDbEntity
8
0
100
AcDbLine
10
-119.61418461411277
20
-28.722031797753402
30
0
11
-119.61418461411277
21
-19.264888940610518
31
0
0
LINE
5
546
100
AcDbEntity
8
0
100
AcDbLine
10
-181.07999239742131
20
-47.636603226882599
30
0
11
-170.14665906412131
21
-47.636603226882798
31
0
0
LINE
5
547
100
AcDbEntity
8
0
100
AcDbLine
10
-202.9469923974213
20
-47.636603226882599
30
0
11
-192.01365906412127
21
-47.636603226882798
31
0
0
LINE
5
548
100
AcDbEntity
8
0
100
AcDbLine
10
-159.21329204843627
20
24.363587245338394
30
0
11
-159.21332573020166
21
18.563587245436395
31
0
0
LINE
5
549
100
AcDbEntity
8
0
100
AcDbLine
10
-213.88065906412129
20
-53.436603226882795
30
0
11
-202.94732573078795
21
-53.436603226882795
31
0
0
LINE
5
550
100
AcDbEntity
8
0
100
AcDbLine
10
-170.14665906412131
20
-47.636603226882798
30
0
11
-170.14665906412131
21
-53.436603226882795
31
0
0
LINE
5
551
100
AcDbEntity
8
0
100
AcDbLine
10
-137.34629204880494
20
24.363460259275627
30
0
11
-137.34632573052127
21
18.563460259373485
31
0
0
LINE
5
552
100
AcDbEntity
8
0
100
AcDbLine
10
-170.14665906412131
20
-53.436603226882795
30
0
11
-159.21332573078797
21
-53.436603226882795
31
0
0
LINE
5
553
100
AcDbEntity
8
0
100
AcDbLine
10
-231.61418461411296
20
-19.264888940610518
30
0
11
-225.81410223570245
21
-19.264905781732438
31
0
0
LINE
5
554
100
AcDbEntity
8
0
100
AcDbLine
10
-231.61418461411287
20
-38.178888940610562
30
0
11
-225.81396493605084
21
-38.178905782131096
31
0
0
LINE
5
555
100
AcDbEntity
8
0
100
AcDbLine
10
-170.61399239741661
20
-22.636031797854884
30
0
11
-166.61399239741661
21
-22.636031797854955
31
0
0
LINE
5
556
100
AcDbEntity
8
0
100
AcDbLine
10
-119.61418461411277
20
-28.722031797753402
30
0
11
-125.4141846141129
21
-28.721746083467536
31
0
0
LINE
5
557
100
AcDbEntity
8
0
100
AcDbLine
10
-225.81396493605084
20
-38.178905782131096
30
0
11
-225.81399239742126
21
-47.636603226882599
31
0
0
LINE
5
558
100
AcDbEntity
8
0
100
AcDbLine
10
-213.88065906262131
20
18.563904709625021
30
0
11
-213.88062538084782
21
24.363904709527233
31
0
0
LINE
5
559
100
AcDbEntity
8
0
100
AcDbLine
10
-170.14665906335063
20
18.5636507374997
30
0
11
-170.14662538158524
21
24.363650737401912
31
0
0
LINE
5
560
100
AcDbEntity
8
0
100
AcDbLine
10
-137.34632573078795
20
-53.436603226882795
30
0
11
-137.3463257307879
21
-47.636603226882599
31
0
0
LINE
5
561
100
AcDbEntity
8
0
100
AcDbLine
10
-165.53869583489643
20
90.569265777878627
30
0
11
-133.53869583520498
21
90.569160346240594
31
0
0
LINE
5
562
100
AcDbEntity
8
0
100
AcDbLine
10
-171.00469583491102
20
57.469265777895053
30
0
11
-160.07136250157765
21
57.469265777895032
31
0
0
LINE
5
563
100
AcDbEntity
8
0
100
AcDbLine
10
-115.41418461411286
20
80.735111059389567
30
0
11
-115.41418461411286
21
90.192253916532422
31
0
0
LINE
5
564
100
AcDbEntity
8
0
100
AcDbLine
10
-171.00447772412667
20
123.66897759296177
30
0
11
-160.07114439102676
21
123.66890554800347
31
0
0
LINE
5
565
100
AcDbEntity
8
0
100
AcDbLine
10
-138.20436250157786
20
51.669265777895035
30
0
11
-127.27102916824457
21
51.669265777895035
31
0
0
LINE
5
566
100
AcDbEntity
8
0
100
AcDbLine
10
-221.61418461411296
20
80.735111059389467
30
0
11
-221.61418461411296
21
90.192253916532295
31
0
0
LINE
5
567
100
AcDbEntity
8
0
100
AcDbLine
10
-149.13802916824457
20
51.669265777895035
30
0
11
-149.13802916824471
21
57.469265777895032
31
0
0
LINE
5
568
100
AcDbEntity
8
0
100
AcDbLine
10
-138.20410617252224
20
129.46876145576638
30
0
11
-127.27077283942249
21
129.46868941080805
31
0
0
LINE
5
569
100
AcDbEntity
8
0
100
AcDbLine
10
-160.07136250157765
20
57.469265777895032
30
0
11
-160.07136250157785
21
51.669265777895035
31
0
0
LINE
5
570
100
AcDbEntity
8
0
100
AcDbLine
10
-138.20436250157763
20
57.469265777895032
30
0
11
-138.20436250157786
21
51.669265777895035
31
0
0
LINE
5
571
100
AcDbEntity
8
0
100
AcDbLine
10
-149.13747772459371
20
123.66883350084862
30
0
11
-138.2041443914938
21
123.66876145589029
31
0
0
LINE
5
572
100
AcDbEntity
8
0
100
AcDbLine
10
-181.93810617158817
20
129.4690496399927
30
0
11
-171.00477283848844
21
129.46897759503437
31
0
0
LINE
5
573
100
AcDbEntity
8
0
100
AcDbLine
10
-197.5386958347228
20
90.569371209516731
30
0
11
-197.53869583473261
21
57.469265777895032
31
0
0
LINE
5
574
100
AcDbEntity
8
0
100
AcDbLine
10
-138.2041443914938
20
123.66876145589029
30
0
11
-138.20410617252224
21
129.46876145576638
31
0
0
LINE
5
575
100
AcDbEntity
8
0
100
AcDbLine
10
-149.13769583491103
20
57.469265777895053
30
0
11
-138.20436250157763
21
57.469265777895032
31
0
0
LINE
5
576
100
AcDbEntity
8
0
100
AcDbLine
10
-160.07110617205518
20
129.46890554787956
30
0
11
-149.13777283895547
21
129.4688335029212
31
0
0
CIRCLE
5
577
100
AcDbEntity
8
0
100
AcDbCircle
10
-191.53861346626528
20
82.469265776123777
30
0
40
3.5000000000000142
210
0
220
0
230
1
0
LINE
5
578
100
AcDbEntity
8
0
100
AcDbLine
10
-192.87177283802097
20
129.46912168714758
30
0
11
-192.87181105699341
21
123.6691216872714
31
0
0
LINE
5
579
100
AcDbEntity
8
0
100
AcDbLine
10
-160.07136250157785
20
51.669265777895035
30
0
11
-149.13802916824457
21
51.669265777895035
31
0
0
LINE
5
580
100
AcDbEntity
8
0
100
AcDbLine
10
-171.00477283848844
20
129.46897759503437
30
0
11
-171.00481105746039
21
123.6689775951583
31
0
0
LINE
5
581
100
AcDbEntity
8
0
100
AcDbLine
10
-160.07114439102676
20
123.66890554800347
30
0
11
-160.07110617205518
21
129.46890554787956
31
0
0
LINE
5
582
100
AcDbEntity
8
0
100
AcDbLine
10
-109.61418461411277
20
80.735111059389709
30
0
11
-115.41418461411286
21
80.735111059389567
31
0
0
LINE
5
583
100
AcDbEntity
8
0
100
AcDbLine
10
-109.61418461411247
20
57.469265777895018
30
0
11
-116.33869583491121
21
57.469265777895018
31
0
0
LINE
5
584
100
AcDbEntity
8
0
100
AcDbLine
10
-181.93836250157787
20
51.669265777895035
30
0
11
-171.00502916824462
21
51.669265777895035
31
0
0
LINE
5
585
100
AcDbEntity
8
0
100
AcDbLine
10
-149.13777283895547
20
129.4688335029212
30
0
11
-149.13781105792739
21
123.66883350304512
31
0
0
LINE
5
586
100
AcDbEntity
8
0
100
AcDbLine
10
-165.53869583489643
20
90.569265777878599
30
0
11
-197.5386958347228
21
90.569371209516731
31
0
0
LINE
5
587
100
AcDbEntity
8
0
100
AcDbLine
10
-109.52863365034416
20
109.10625042448228
30
0
11
-115.41418515569374
21
109.10625038073066
31
0
0
LINE
5
588
100
AcDbEntity
8
0
100
AcDbLine
10
-203.8051061711208
20
129.46919373210588
30
0
11
-192.87177283802097
21
129.46912168714758
31
0
0
LINE
5
589
100
AcDbEntity
8
0
100
AcDbLine
10
-221.61418458185244
20
99.649111059389412
30
0
11
-221.61418458025958
21
109.10206985178995
31
0
0
LINE
5
590
100
AcDbEntity
8
0
100
AcDbLine
10
-181.93836250157761
20
57.469265777895032
30
0
11
-181.93836250157787
21
51.669265777895035
31
0
0
LINE
5
591
100
AcDbEntity
8
0
100
AcDbLine
10
-215.81410231719218
20
80.735094218267847
30
0
11
-215.8141297639724
21
71.278236687080906
31
0
0
LINE
5
592
100
AcDbEntity
8
0
100
AcDbLine
10
-192.87169583491101
20
57.469265777895053
30
0
11
-181.93836250157761
21
57.469265777895032
31
0
0
LINE
5
593
100
AcDbEntity
8
0
100
AcDbLine
10
-221.63498820169787
20
67.084613762793481
30
0
11
-215.85746191067199
21
66.952496941627118
31
0
0
LINE
5
594
100
AcDbEntity
8
0
100
AcDbLine
10
-203.80514439009261
20
123.66919373222973
30
0
11
-203.8051061711208
21
129.46919373210588
31
0
0
LINE
5
595
100
AcDbEntity
8
0
100
AcDbLine
10
-215.81404731700354
20
99.649094218108303
30
0
11
-215.81407477593828
21
90.192237075330723
31
0
0
LINE
5
596
100
AcDbEntity
8
0
100
AcDbLine
10
-221.61418461411296
20
90.192253916532295
30
0
11
-215.81407477593828
21
90.192237075330723
31
0
0
LINE
5
597
100
AcDbEntity
8
0
100
AcDbLine
10
-214.73869583491106
20
57.469265777895032
30
0
11
-214.73869583491086
21
66.926408635037859
31
0
0
LINE
5
598
100
AcDbEntity
8
0
100
AcDbLine
10
-221.61418461411296
20
80.735111059389467
30
0
11
-215.81410231719218
21
80.735094218267847
31
0
0
LINE
5
599
100
AcDbEntity
8
0
100
AcDbLine
10
-214.73869583491106
20
57.469265777895032
30
0
11
-203.80536250157721
21
57.469265777895004
31
0
0
LINE
5
600
100
AcDbEntity
8
0
100
AcDbLine
10
-221.63498820169787
20
67.084613762793481
30
0
11
-221.63549856891959
21
71.278253582527384
31
0
0
LINE
5
601
100
AcDbEntity
8
0
100
AcDbLine
10
-215.83297507687718
20
123.69452464728775
30
0
11
-214.73869583491097
21
123.66926577789502
31
0
0
LINE
5
602
100
AcDbEntity
8
0
100
AcDbLine
10
-221.63549856891959
20
71.278253582527384
30
0
11
-215.8141297639724
21
71.278236687080906
31
0
0
LINE
5
603
100
AcDbEntity
8
0
100
AcDbLine
10
-215.85746191067199
20
66.952496941627118
30
0
11
-214.73869583491086
21
66.926408635037859
31
0
0
LINE
5
604
100
AcDbEntity
8
0
100
AcDbLine
10
-221.61418458185244
20
99.649111059389412
30
0
11
-215.81404731700354
21
99.649094218108303
31
0
0
LINE
5
605
100
AcDbEntity
8
0
100
AcDbLine
10
-214.7384777231926
20
123.66926577718812
30
0
11
-203.80514439009261
21
123.66919373222973
31
0
0
LINE
5
606
100
AcDbEntity
8
0
100
AcDbLine
10
-221.61418458025958
20
109.10206985178995
30
0
11
-215.83221196780229
21
109.1023722249864
31
0
0
LINE
5
607
100
AcDbEntity
8
0
100
AcDbLine
10
-109.61418461411277
20
71.277968202246626
30
0
11
-115.41418461411297
21
71.278253916532435
31
0
0
LINE
5
608
100
AcDbEntity
8
0
100
AcDbLine
10
-171.00502916824462
20
51.669265777895035
30
0
11
-171.0050291682447
21
57.469265777895032
31
0
0
LINE
5
609
100
AcDbEntity
8
0
100
AcDbLine
10
-127.27077283942249
20
129.46868941080805
30
0
11
-127.27081105839443
21
123.6686894109319
31
0
0
LINE
5
610
100
AcDbEntity
8
0
100
AcDbLine
10
-115.4141846141129
20
61.82111105938958
30
0
11
-109.6141846141123
21
61.821111059389544
31
0
0
LINE
5
611
100
AcDbEntity
8
0
100
AcDbLine
10
-192.87147772365967
20
123.66912168507491
30
0
11
-181.93814439055981
21
123.6690496401166
31
0
0
LINE
5
612
100
AcDbEntity
8
0
100
AcDbLine
10
-215.83297507687718
20
123.69452464728775
30
0
11
-215.83221196780229
21
109.1023722249864
31
0
0
LINE
5
613
100
AcDbEntity
8
0
100
AcDbLine
10
-109.52863365034416
20
109.10625042448228
30
0
11
-109.52138159952523
21
125.50467010173925
31
0
0
LINE
5
614
100
AcDbEntity
8
0
100
AcDbLine
10
-109.61418461411277
20
99.649110802147192
30
0
11
-115.41418508539198
21
99.649110759031473
31
0
0
LINE
5
615
100
AcDbEntity
8
0
100
AcDbLine
10
-109.52138159952523
20
125.50467010173925
30
0
11
-116.33869583491094
21
123.66926577789499
31
0
0
LINE
5
616
100
AcDbEntity
8
0
100
AcDbLine
10
-127.27102916824472
20
57.469265777895032
30
0
11
-116.33869583491121
21
57.469265777895018
31
0
0
LINE
5
617
100
AcDbEntity
8
0
100
AcDbLine
10
-181.93814439055981
20
123.6690496401166
30
0
11
-181.93810617158817
21
129.4690496399927
31
0
0
LINE
5
618
100
AcDbEntity
8
0
100
AcDbLine
10
-192.8720291682441
20
51.669265777895035
30
0
11
-192.87202916824472
21
57.469265777895032
31
0
0
LINE
5
619
100
AcDbEntity
8
0
100
AcDbLine
10
-203.80536250157743
20
51.669265777895035
30
0
11
-192.8720291682441
21
51.669265777895035
31
0
0
LINE
5
620
100
AcDbEntity
8
0
100
AcDbLine
10
-115.41418508539198
20
99.649110759031473
30
0
11
-115.41418515569374
21
109.10625038073066
31
0
0
LINE
5
621
100
AcDbEntity
8
0
100
AcDbLine
10
-127.27102916824457
20
51.669265777895035
30
0
11
-127.27102916824472
21
57.469265777895032
31
0
0
LINE
5
622
100
AcDbEntity
8
0
100
AcDbLine
10
-197.53869583473261
20
57.469265777895032
30
0
11
-191.53869583471561
21
57.469265776243731
31
0
0
CIRCLE
5
623
100
AcDbEntity
8
0
100
AcDbCircle
10
-139.53877820355677
20
82.469265776123592
30
0
40
3.5000000000000142
210
0
220
0
230
1
0
LINE
5
624
100
AcDbEntity
8
0
100
AcDbLine
10
-109.61418461411277
20
71.277968202246626
30
0
11
-109.61418461411277
21
80.735111059389709
31
0
0
LINE
5
625
100
AcDbEntity
8
0
100
AcDbLine
10
-133.53869583520498
20
90.569160346240594
30
0
11
-133.53869583520424
21
57.469265777895032
31
0
0
LINE
5
626
100
AcDbEntity
8
0
100
AcDbLine
10
-127.27081105839443
20
123.6686894109319
30
0
11
-116.33847772529442
21
123.66861737256312
31
0
0
LINE
5
627
100
AcDbEntity
8
0
100
AcDbLine
10
-109.61418461411277
20
90.191968202246656
30
0
11
-109.61418461411277
21
99.649110802147192
31
0
0
LINE
5
628
100
AcDbEntity
8
0
100
AcDbLine
10
-109.61418461411247
20
57.469265777895018
30
0
11
-109.6141846141123
21
61.821111059389544
31
0
0
LINE
5
629
100
AcDbEntity
8
0
100
AcDbLine
10
-191.53869583471561
20
57.469265776243731
30
0
11
-191.53861346624834
21
82.469265776108102
31
0
0
LINE
5
630
100
AcDbEntity
8
0
100
AcDbLine
10
-109.61418461411277
20
90.191968202246656
30
0
11
-115.41418461411286
21
90.192253916532422
31
0
0
LINE
5
631
100
AcDbEntity
8
0
100
AcDbLine
10
-115.4141846141129
20
61.82111105938958
30
0
11
-115.41418461411297
21
71.278253916532435
31
0
0
LINE
5
632
100
AcDbEntity
8
0
100
AcDbLine
10
-203.80536250157721
20
57.469265777895004
30
0
11
-203.80536250157743
21
51.669265777895035
31
0
0
ENDSEC
0
SECTION
2
OBJECTS
0
DICTIONARY
5
C
100
AcDbDictionary
3
ACAD_GROUP
350
D
3
ACAD_MLINESTYLE
350
17
0
DICTIONARY
5
D
100
AcDbDictionary
0
DICTIONARY
5
1A
330
C
100
AcDbDictionary
0
DICTIONARY
5
17
100
AcDbDictionary
0
ENDSEC
0
EOF
