0
SECTION
2
HEADER
9
$INSUNITS
70
4
9
$ACADVER
1
AC1014
9
$HANDSEED
5
FFFF
0
ENDSEC
0
SECTION
2
TABLES
0
TABLE
2
VPORT
5
8
100
AcDbSymbolTable
0
ENDTAB
0
TABLE
2
LTYPE
5
5
100
AcDbSymbolTable
0
LTYPE
5
14
100
AcDbSymbolTableRecord
100
AcDbLinetypeTableRecord
2
BYBLOCK
70
0
0
LTYPE
5
15
100
AcDbSymbolTableRecord
100
AcDbLinetypeTableRecord
2
BYLAYER
70
0
0
LTYPE
5
16
100
AcDbSymbolTableRecord
100
AcDbLinetypeTableRecord
2
DASHED
70
0
3
Dashed __ __ __ __ __ __ __ __ __ __ __ __ __ _
72
65
73
2
40
0.75
49
0.5
74
0
49
-0.25
74
0
0
ENDTAB
0
TABLE
2
LAYER
5
2
100
AcDbSymbolTable
70
2
0
LAYER
5
50
100
AcDbSymbolTableRecord
100
AcDbLayerTableRecord
2
0
70
0
62
7
6
CONTINUOUS
0
ENDTAB
0
TABLE
2
STYLE
5
3
100
AcDbSymbolTable
70
1
0
STYLE
5
11
100
AcDbSymbolTableRecord
100
AcDbTextStyleTableRecord
2
STANDARD
70
0
0
ENDTAB
0
TABLE
2
VIEW
5
6
100
AcDbSymbolTable
70
0
0
ENDTAB
0
TABLE
2
UCS
5
7
100
AcDbSymbolTable
70
0
0
ENDTAB
0
TABLE
2
APPID
5
9
100
AcDbSymbolTable
70
2
0
APPID
5
12
100
AcDbSymbolTableRecord
100
AcDbRegAppTableRecord
2
ACAD
70
0
0
ENDTAB
0
TABLE
2
DIMSTYLE
5
A
100
AcDbSymbolTable
70
1
0
ENDTAB
0
TABLE
2
BLOCK_RECORD
5
1
100
AcDbSymbolTable
70
1
0
BLOCK_RECORD
5
1F
100
AcDbSymbolTableRecord
100
AcDbBlockTableRecord
2
*MODEL_SPACE
0
BLOCK_RECORD
5
1B
100
AcDbSymbolTableRecord
100
AcDbBlockTableRecord
2
*PAPER_SPACE
0
ENDTAB
0
ENDSEC
0
SECTION
2
BLOCKS
0
BLOCK
5
20
100
AcDbEntity
100
AcDbBlockBegin
2
*MODEL_SPACE
0
ENDBLK
5
21
100
AcDbEntity
100
AcDbBlockEnd
0
BLOCK
5
1C
100
AcDbEntity
100
AcDbBlockBegin
2
*PAPER_SPACE
0
ENDBLK
5
1D
100
AcDbEntity
100
AcDbBlockEnd
0
ENDSEC
0
SECTION
2
ENTITIES
0
POINT
5
100
100
AcDbEntity
8
0
100
AcDbPoint
10
0
20
0
30
0
0
LINE
5
101
100
AcDbEntity
8
0
100
AcDbLine
10
3.3306690738754696e-14
20
3.9999999999999858
30
0
11
1.0658141036401503e-13
21
12.499999999999858
31
0
6
DASHED
0
LINE
5
102
100
AcDbEntity
8
0
100
AcDbLine
10
1.0658141036401503e-13
20
12.499999999999858
30
0
11
4.0000000000000924
21
12.499999999999858
31
0
6
DASHED
0
LINE
5
103
100
AcDbEntity
8
0
100
AcDbLine
10
4.0000000000000924
20
12.499999999999858
30
0
11
4.0000000000000924
21
24.999999999999858
31
0
6
DASHED
0
LINE
5
104
100
AcDbEntity
8
0
100
AcDbLine
10
4.0000000000000924
20
24.999999999999858
30
0
11
-133.50000000000026
21
24.999999999999911
31
0
6
DASHED
0
LINE
5
105
100
AcDbEntity
8
0
100
AcDbLine
10
-133.50000000000026
20
24.999999999999911
30
0
11
-133.50000000000026
21
12.499999999999909
31
0
6
DASHED
0
LINE
5
106
100
AcDbEntity
8
0
100
AcDbLine
10
-133.50000000000026
20
12.499999999999909
30
0
11
-129.50000000000023
21
12.499999999999902
31
0
6
DASHED
0
LINE
5
107
100
AcDbEntity
8
0
100
AcDbLine
10
-129.50000000000023
20
12.499999999999902
30
0
11
-129.5
21
3.9999999999999925
31
0
6
DASHED
0
LINE
5
108
100
AcDbEntity
8
0
100
AcDbLine
10
-129.5
20
3.9999999999999925
30
0
11
-142
21
4.0000000000000036
31
0
6
DASHED
0
LINE
5
109
100
AcDbEntity
8
0
100
AcDbLine
10
-142
20
4.0000000000000036
30
0
11
-142
21
3.8857805861880479e-15
31
0
6
DASHED
0
LINE
5
110
100
AcDbEntity
8
0
100
AcDbLine
10
-142
20
3.8857805861880479e-15
30
0
11
-157.42356949117021
21
-1.482147737874584e-13
31
0
6
DASHED
0
LINE
5
111
100
AcDbEntity
8
0
100
AcDbLine
10
-233.50000000000139
20
-199.99999999999872
30
0
11
-229.50000000000142
21
-199.99999999999872
31
0
6
DASHED
0
LINE
5
112
100
AcDbEntity
8
0
100
AcDbLine
10
-229.50000000000142
20
-199.99999999999872
30
0
11
-229.50000000000142
21
-212.49999999999872
31
0
6
DASHED
0
LINE
5
113
100
AcDbEntity
8
0
100
AcDbLine
10
-229.50000000000142
20
-212.49999999999872
30
0
11
-233.50000000000139
21
-212.49999999999872
31
0
6
DASHED
0
LINE
5
114
100
AcDbEntity
8
0
100
AcDbLine
10
-233.50000000000139
20
-212.49999999999872
30
0
11
-233.50000000000139
21
-224.99999999999872
31
0
6
DASHED
0
LINE
5
115
100
AcDbEntity
8
0
100
AcDbLine
10
-233.50000000000139
20
-224.99999999999872
30
0
11
-229.50000000000142
21
-224.99999999999869
31
0
6
DASHED
0
LINE
5
116
100
AcDbEntity
8
0
100
AcDbLine
10
-229.50000000000142
20
-224.99999999999869
30
0
11
-229.50000000000071
21
-237.49999999999855
31
0
6
DASHED
0
LINE
5
117
100
AcDbEntity
8
0
100
AcDbLine
10
-229.50000000000071
20
-237.49999999999855
30
0
11
-233.50000000000068
21
-237.49999999999875
31
0
6
DASHED
0
LINE
5
118
100
AcDbEntity
8
0
100
AcDbLine
10
-233.50000000000068
20
-237.49999999999875
30
0
11
-233.5
21
-250.00000000000011
31
0
6
DASHED
0
LINE
5
119
100
AcDbEntity
8
0
100
AcDbLine
10
-233.5
20
-250.00000000000011
30
0
11
-216.99999999999991
21
-249.99999999999994
31
0
6
DASHED
0
LINE
5
120
100
AcDbEntity
8
0
100
AcDbLine
10
-216.99999999999991
20
-249.99999999999994
30
0
11
-216.99999999999994
21
-253.99999999999991
31
0
6
DASHED
0
LINE
5
121
100
AcDbEntity
8
0
100
AcDbLine
10
-216.99999999999994
20
-253.99999999999991
30
0
11
-204.49999999999994
21
-253.99999999999994
31
0
6
DASHED
0
LINE
5
122
100
AcDbEntity
8
0
100
AcDbLine
10
-204.49999999999994
20
-253.99999999999994
30
0
11
-204.5
21
-250
31
0
6
DASHED
0
LINE
5
123
100
AcDbEntity
8
0
100
AcDbLine
10
-204.5
20
-250
30
0
11
-191.99999999999991
21
-249.99999999999994
31
0
6
DASHED
0
LINE
5
124
100
AcDbEntity
8
0
100
AcDbLine
10
-191.99999999999991
20
-249.99999999999994
30
0
11
-191.99999999999994
21
-253.99999999999991
31
0
6
DASHED
0
LINE
5
125
100
AcDbEntity
8
0
100
AcDbLine
10
-191.99999999999994
20
-253.99999999999991
30
0
11
-179.49999999999994
21
-253.99999999999994
31
0
6
DASHED
0
LINE
5
126
100
AcDbEntity
8
0
100
AcDbLine
10
-179.49999999999994
20
-253.99999999999994
30
0
11
-179.5
21
-250
31
0
6
DASHED
0
LINE
5
127
100
AcDbEntity
8
0
100
AcDbLine
10
-179.5
20
-250
30
0
11
-166.99999999999991
21
-249.99999999999994
31
0
6
DASHED
0
LINE
5
128
100
AcDbEntity
8
0
100
AcDbLine
10
-166.99999999999991
20
-249.99999999999994
30
0
11
-166.99999999999994
21
-253.99999999999991
31
0
6
DASHED
0
LINE
5
129
100
AcDbEntity
8
0
100
AcDbLine
10
-166.99999999999994
20
-253.99999999999991
30
0
11
-154.49999999999994
21
-253.99999999999994
31
0
6
DASHED
0
LINE
5
130
100
AcDbEntity
8
0
100
AcDbLine
10
-154.49999999999994
20
-253.99999999999994
30
0
11
-154.5
21
-250
31
0
6
DASHED
0
LINE
5
131
100
AcDbEntity
8
0
100
AcDbLine
10
-154.5
20
-250
30
0
11
-141.99999999999991
21
-249.99999999999994
31
0
6
DASHED
0
LINE
5
132
100
AcDbEntity
8
0
100
AcDbLine
10
-141.99999999999991
20
-249.99999999999994
30
0
11
-141.99999999999994
21
-253.99999999999991
31
0
6
DASHED
0
LINE
5
133
100
AcDbEntity
8
0
100
AcDbLine
10
-141.99999999999994
20
-253.99999999999991
30
0
11
-129.49999999999997
21
-253.99999999999994
31
0
6
DASHED
0
LINE
5
134
100
AcDbEntity
8
0
100
AcDbLine
10
-129.49999999999997
20
-253.99999999999994
30
0
11
-129.49999999999994
21
-262.5
31
0
6
DASHED
0
LINE
5
135
100
AcDbEntity
8
0
100
AcDbLine
10
-129.49999999999994
20
-262.5
30
0
11
-133.49999999999997
21
-262.49999999999994
31
0
6
DASHED
0
LINE
5
136
100
AcDbEntity
8
0
100
AcDbLine
10
-133.49999999999997
20
-262.49999999999994
30
0
11
-133.5
21
-275
31
0
6
DASHED
0
LINE
5
137
100
AcDbEntity
8
0
100
AcDbLine
10
-133.5
20
-275
30
0
11
-129.5
21
-275
31
0
6
DASHED
0
LINE
5
138
100
AcDbEntity
8
0
100
AcDbLine
10
-129.5
20
-275
30
0
11
-129.49999999999997
21
-287.5
31
0
6
DASHED
0
LINE
5
139
100
AcDbEntity
8
0
100
AcDbLine
10
-129.49999999999997
20
-287.5
30
0
11
-133.49999999999997
21
-287.50000000000006
31
0
6
DASHED
0
LINE
5
140
100
AcDbEntity
8
0
100
AcDbLine
10
-133.49999999999997
20
-287.50000000000006
30
0
11
-133.49999999999994
21
-300
31
0
6
DASHED
0
LINE
5
141
100
AcDbEntity
8
0
100
AcDbLine
10
-133.49999999999994
20
-300
30
0
11
-129.49999999999994
21
-300
31
0
6
DASHED
0
LINE
5
142
100
AcDbEntity
8
0
100
AcDbLine
10
-129.49999999999994
20
-300
30
0
11
-129.49999999999994
21
-312.5
31
0
6
DASHED
0
LINE
5
143
100
AcDbEntity
8
0
100
AcDbLine
10
-129.49999999999994
20
-312.5
30
0
11
-133.49999999999997
21
-312.50000000000006
31
0
6
DASHED
0
LINE
5
144
100
AcDbEntity
8
0
100
AcDbLine
10
-133.49999999999997
20
-312.50000000000006
30
0
11
-133.49999999999994
21
-325
31
0
6
DASHED
0
LINE
5
145
100
AcDbEntity
8
0
100
AcDbLine
10
-133.49999999999994
20
-325
30
0
11
-129.49999999999994
21
-325
31
0
6
DASHED
0
LINE
5
146
100
AcDbEntity
8
0
100
AcDbLine
10
-129.49999999999994
20
-325
30
0
11
-129.49999999999994
21
-337.5
31
0
6
DASHED
0
LINE
5
147
100
AcDbEntity
8
0
100
AcDbLine
10
-129.49999999999994
20
-337.5
30
0
11
-133.49999999999994
21
-337.5
31
0
6
DASHED
0
LINE
5
148
100
AcDbEntity
8
0
100
AcDbLine
10
-133.49999999999994
20
-337.5
30
0
11
-133.49999999999991
21
-354.00000000000176
31
0
6
DASHED
0
LINE
5
149
100
AcDbEntity
8
0
100
AcDbLine
10
4.0000000000000746
20
-354.00000000000176
30
0
11
3.9999999999999503
21
-337.5
31
0
6
DASHED
0
LINE
5
150
100
AcDbEntity
8
0
100
AcDbLine
10
3.9999999999999503
20
-337.5
30
0
11
-3.5527136788005009e-14
21
-337.5
31
0
6
DASHED
0
LINE
5
151
100
AcDbEntity
8
0
100
AcDbLine
10
-3.5527136788005009e-14
20
-337.5
30
0
11
-3.5527136788005009e-14
21
-325
31
0
6
DASHED
0
LINE
5
152
100
AcDbEntity
8
0
100
AcDbLine
10
-3.5527136788005009e-14
20
-325
30
0
11
3.999999999999968
21
-325
31
0
6
DASHED
0
LINE
5
153
100
AcDbEntity
8
0
100
AcDbLine
10
3.999999999999968
20
-325
30
0
11
3.9999999999999858
21
-312.50000000000006
31
0
6
DASHED
0
LINE
5
154
100
AcDbEntity
8
0
100
AcDbLine
10
3.9999999999999858
20
-312.50000000000006
30
0
11
-1.7763568394002505e-14
21
-312.5
31
0
6
DASHED
0
LINE
5
155
100
AcDbEntity
8
0
100
AcDbLine
10
-1.7763568394002505e-14
20
-312.5
30
0
11
-3.5527136788005009e-14
21
-300
31
0
6
DASHED
0
LINE
5
156
100
AcDbEntity
8
0
100
AcDbLine
10
-3.5527136788005009e-14
20
-300
30
0
11
3.999999999999968
21
-300
31
0
6
DASHED
0
LINE
5
157
100
AcDbEntity
8
0
100
AcDbLine
10
3.999999999999968
20
-300
30
0
11
4.0000000000000036
21
-287.5
31
0
6
DASHED
0
LINE
5
158
100
AcDbEntity
8
0
100
AcDbLine
10
4.0000000000000036
20
-287.5
30
0
11
-1.7763568394002505e-14
21
-287.49999999999994
31
0
6
DASHED
0
LINE
5
159
100
AcDbEntity
8
0
100
AcDbLine
10
-1.7763568394002505e-14
20
-287.49999999999994
30
0
11
0
21
-274.99999999999994
31
0
6
DASHED
0
LINE
5
160
100
AcDbEntity
8
0
100
AcDbLine
10
0
20
-274.99999999999994
30
0
11
4.0000000000000036
21
-274.99999999999994
31
0
6
DASHED
0
LINE
5
161
100
AcDbEntity
8
0
100
AcDbLine
10
4.0000000000000036
20
-274.99999999999994
30
0
11
3.999999999999968
21
-262.49999999999994
31
0
6
DASHED
0
LINE
5
162
100
AcDbEntity
8
0
100
AcDbLine
10
3.999999999999968
20
-262.49999999999994
30
0
11
-3.5527136788005009e-14
21
-262.49999999999994
31
0
6
DASHED
0
LINE
5
163
100
AcDbEntity
8
0
100
AcDbLine
10
-3.5527136788005009e-14
20
-262.49999999999994
30
0
11
-1.1368683772161596e-14
21
-254
31
0
6
DASHED
0
LINE
5
164
100
AcDbEntity
8
0
100
AcDbLine
10
-157.42356949117021
20
-1.482147737874584e-13
30
0
11
-157.42356949117021
21
3.9999999999998437
31
0
0
ARC
5
165
100
AcDbEntity
8
0
100
AcDbCircle
10
-124.09097982778091
20
-95.999999999998678
30
0
40
105.40902017222052
210
0
220
0
230
1
100
AcDbArc
50
108.43456533972443
51
180
0
LINE
5
166
100
AcDbEntity
8
0
100
AcDbLine
10
-229.50000000000145
20
-95.999999999998693
30
0
11
-229.50000000000142
21
-187.49999999999872
31
0
0
LINE
5
167
100
AcDbEntity
8
0
100
AcDbLine
10
-229.50000000000142
20
-187.49999999999872
30
0
11
-233.50000000000139
21
-187.49999999999872
31
0
0
LINE
5
168
100
AcDbEntity
8
0
100
AcDbLine
10
-233.50000000000139
20
-187.49999999999872
30
0
11
-233.50000000000139
21
-199.99999999999872
31
0
0
LINE
5
169
100
AcDbEntity
8
0
100
AcDbLine
10
-133.49999999999991
20
-354.00000000000176
30
0
11
-120.99999999999993
21
-354.00000000000176
31
0
0
LINE
5
170
100
AcDbEntity
8
0
100
AcDbLine
10
-120.99999999999993
20
-354.00000000000176
30
0
11
-120.99999999999994
21
-350.00000000000165
31
0
0
LINE
5
171
100
AcDbEntity
8
0
100
AcDbLine
10
-120.99999999999994
20
-350.00000000000165
30
0
11
-108.49999999999993
21
-350
31
0
0
LINE
5
172
100
AcDbEntity
8
0
100
AcDbLine
10
-108.49999999999993
20
-350
30
0
11
-108.49999999999993
21
-354.00000000000176
31
0
0
LINE
5
173
100
AcDbEntity
8
0
100
AcDbLine
10
-108.49999999999993
20
-354.00000000000176
30
0
11
-95.999999999999929
21
-354.00000000000176
31
0
0
LINE
5
174
100
AcDbEntity
8
0
100
AcDbLine
10
-95.999999999999929
20
-354.00000000000176
30
0
11
-95.999999999999943
21
-350.00000000000165
31
0
0
LINE
5
175
100
AcDbEntity
8
0
100
AcDbLine
10
-95.999999999999943
20
-350.00000000000165
30
0
11
-83.499999999999929
21
-350
31
0
0
LINE
5
176
100
AcDbEntity
8
0
100
AcDbLine
10
-83.499999999999929
20
-350
30
0
11
-83.499999999999929
21
-354.00000000000176
31
0
0
LINE
5
177
100
AcDbEntity
8
0
100
AcDbLine
10
-83.499999999999929
20
-354.00000000000176
30
0
11
-70.999999999999929
21
-354.00000000000176
31
0
0
LINE
5
178
100
AcDbEntity
8
0
100
AcDbLine
10
-70.999999999999929
20
-354.00000000000176
30
0
11
-70.999999999999943
21
-350.00000000000165
31
0
0
LINE
5
179
100
AcDbEntity
8
0
100
AcDbLine
10
-70.999999999999943
20
-350.00000000000165
30
0
11
-58.499999999999929
21
-350
31
0
0
LINE
5
180
100
AcDbEntity
8
0
100
AcDbLine
10
-58.499999999999929
20
-350
30
0
11
-58.499999999999929
21
-354.00000000000176
31
0
0
LINE
5
181
100
AcDbEntity
8
0
100
AcDbLine
10
-58.499999999999929
20
-354.00000000000176
30
0
11
-45.999999999999929
21
-354.00000000000176
31
0
0
LINE
5
182
100
AcDbEntity
8
0
100
AcDbLine
10
-45.999999999999929
20
-354.00000000000176
30
0
11
-45.999999999999943
21
-350.00000000000165
31
0
0
LINE
5
183
100
AcDbEntity
8
0
100
AcDbLine
10
-45.999999999999943
20
-350.00000000000165
30
0
11
-33.499999999999929
21
-350
31
0
0
LINE
5
184
100
AcDbEntity
8
0
100
AcDbLine
10
-33.499999999999929
20
-350
30
0
11
-33.499999999999929
21
-354.00000000000176
31
0
0
LINE
5
185
100
AcDbEntity
8
0
100
AcDbLine
10
-33.499999999999929
20
-354.00000000000176
30
0
11
-20.999999999999925
21
-354.00000000000176
31
0
0
LINE
5
186
100
AcDbEntity
8
0
100
AcDbLine
10
-20.999999999999925
20
-354.00000000000176
30
0
11
-20.999999999999943
21
-350.00000000000165
31
0
0
LINE
5
187
100
AcDbEntity
8
0
100
AcDbLine
10
-20.999999999999943
20
-350.00000000000165
30
0
11
-8.4999999999999254
21
-350
31
0
0
LINE
5
188
100
AcDbEntity
8
0
100
AcDbLine
10
-8.4999999999999254
20
-350
30
0
11
-8.4999999999999254
21
-354.00000000000176
31
0
0
LINE
5
189
100
AcDbEntity
8
0
100
AcDbLine
10
-8.4999999999999254
20
-354.00000000000176
30
0
11
4.0000000000000746
21
-354.00000000000176
31
0
0
LINE
5
190
100
AcDbEntity
8
0
100
AcDbLine
10
-1.1368683772161596e-14
20
-254
30
0
11
12.499999999999964
21
-253.99999999999991
31
0
0
LINE
5
191
100
AcDbEntity
8
0
100
AcDbLine
10
12.499999999999964
20
-253.99999999999991
30
0
11
12.499999999999929
21
-249.99999999999994
31
0
0
LINE
5
192
100
AcDbEntity
8
0
100
AcDbLine
10
12.499999999999929
20
-249.99999999999994
30
0
11
25
21
-250
31
0
0
LINE
5
193
100
AcDbEntity
8
0
100
AcDbLine
10
25
20
-250
30
0
11
24.999999999999964
21
-253.99999999999994
31
0
0
LINE
5
194
100
AcDbEntity
8
0
100
AcDbLine
10
24.999999999999964
20
-253.99999999999994
30
0
11
37.499999999999964
21
-253.99999999999991
31
0
0
LINE
5
195
100
AcDbEntity
8
0
100
AcDbLine
10
37.499999999999964
20
-253.99999999999991
30
0
11
37.499999999999929
21
-249.99999999999994
31
0
0
LINE
5
196
100
AcDbEntity
8
0
100
AcDbLine
10
37.499999999999929
20
-249.99999999999994
30
0
11
49.999999999999893
21
-249.99999999999989
31
0
0
LINE
5
197
100
AcDbEntity
8
0
100
AcDbLine
10
49.999999999999893
20
-249.99999999999989
30
0
11
49.999999999999964
21
-253.99999999999994
31
0
0
LINE
5
198
100
AcDbEntity
8
0
100
AcDbLine
10
49.999999999999964
20
-253.99999999999994
30
0
11
62.499999999999964
21
-253.99999999999991
31
0
0
LINE
5
199
100
AcDbEntity
8
0
100
AcDbLine
10
62.499999999999964
20
-253.99999999999991
30
0
11
62.499999999999929
21
-249.99999999999994
31
0
0
LINE
5
200
100
AcDbEntity
8
0
100
AcDbLine
10
62.499999999999929
20
-249.99999999999994
30
0
11
74.999999999999886
21
-249.99999999999989
31
0
0
LINE
5
201
100
AcDbEntity
8
0
100
AcDbLine
10
74.999999999999886
20
-249.99999999999989
30
0
11
74.999999999999972
21
-253.99999999999994
31
0
0
LINE
5
202
100
AcDbEntity
8
0
100
AcDbLine
10
74.999999999999972
20
-253.99999999999994
30
0
11
87.499999999999972
21
-253.99999999999991
31
0
0
LINE
5
203
100
AcDbEntity
8
0
100
AcDbLine
10
87.499999999999972
20
-253.99999999999991
30
0
11
87.499999999999929
21
-249.99999999999994
31
0
0
LINE
5
204
100
AcDbEntity
8
0
100
AcDbLine
10
87.499999999999929
20
-249.99999999999994
30
0
11
104.00000000000003
21
-250.00000000000011
31
0
0
LINE
5
205
100
AcDbEntity
8
0
100
AcDbLine
10
104.00000000000003
20
-250.00000000000011
30
0
11
104.00000000000074
21
-237.49999999999875
31
0
0
LINE
5
206
100
AcDbEntity
8
0
100
AcDbLine
10
104.00000000000074
20
-237.49999999999875
30
0
11
100.00000000000074
21
-237.49999999999855
31
0
0
LINE
5
207
100
AcDbEntity
8
0
100
AcDbLine
10
100.00000000000074
20
-237.49999999999855
30
0
11
100.00000000000145
21
-224.99999999999869
31
0
0
LINE
5
208
100
AcDbEntity
8
0
100
AcDbLine
10
100.00000000000145
20
-224.99999999999869
30
0
11
104.00000000000145
21
-224.99999999999872
31
0
0
LINE
5
209
100
AcDbEntity
8
0
100
AcDbLine
10
104.00000000000145
20
-224.99999999999872
30
0
11
104.00000000000145
21
-212.49999999999872
31
0
0
LINE
5
210
100
AcDbEntity
8
0
100
AcDbLine
10
104.00000000000145
20
-212.49999999999872
30
0
11
100.00000000000145
21
-212.49999999999872
31
0
0
LINE
5
211
100
AcDbEntity
8
0
100
AcDbLine
10
100.00000000000145
20
-212.49999999999872
30
0
11
100.00000000000145
21
-199.99999999999872
31
0
0
LINE
5
212
100
AcDbEntity
8
0
100
AcDbLine
10
100.00000000000145
20
-199.99999999999872
30
0
11
104.00000000000145
21
-199.99999999999872
31
0
0
LINE
5
213
100
AcDbEntity
8
0
100
AcDbLine
10
104.00000000000145
20
-199.99999999999872
30
0
11
104.00000000000145
21
-187.49999999999872
31
0
0
LINE
5
214
100
AcDbEntity
8
0
100
AcDbLine
10
104.00000000000145
20
-187.49999999999872
30
0
11
100.00000000000145
21
-187.49999999999872
31
0
0
LINE
5
215
100
AcDbEntity
8
0
100
AcDbLine
10
100.00000000000145
20
-187.49999999999872
30
0
11
100.00000000000145
21
-95.999999999998693
31
0
0
ARC
5
216
100
AcDbEntity
8
0
100
AcDbCircle
10
-5.4090201722190834
20
-95.999999999998678
30
0
40
105.40902017222054
210
-0
220
0
230
1
100
AcDbArc
50
0
51
71.565434660275585
0
LINE
5
217
100
AcDbEntity
8
0
100
AcDbLine
10
27.923569491170209
20
3.9999999999998561
30
0
11
27.923569491170213
21
-1.4210854715202004e-13
31
0
0
LINE
5
218
100
AcDbEntity
8
0
100
AcDbLine
10
27.923569491170213
20
-1.4210854715202004e-13
30
0
11
12.5
21
0
31
0
0
LINE
5
219
100
AcDbEntity
8
0
100
AcDbLine
10
12.5
20
0
30
0
11
12.5
21
3.9999999999999858
31
0
0
LINE
5
220
100
AcDbEntity
8
0
100
AcDbLine
10
12.5
20
3.9999999999999858
30
0
11
3.3306690738754696e-14
21
3.9999999999999858
31
0
0
LWPOLYLINE
5
221
100
AcDbEntity
8
0
100
AcDbPolyline
90
120
70
1
43
0.0
10
-229.80000000000143
20
-200.29999999999873
10
-229.80000000000143
20
-212.19999999999871
10
-233.8000000000014
20
-212.19999999999871
10
-233.8000000000014
20
-225.29999999999873
10
-229.80000000000143
20
-225.2999999999987
10
-229.80000000000072
20
-237.19999999999854
10
-233.80000000000069
20
-237.19999999999874
10
-233.80000000000001
20
-250.30000000000013
10
-217.29999999999993
20
-250.29999999999995
10
-217.29999999999995
20
-254.29999999999993
10
-204.19999999999993
20
-254.29999999999995
10
-204.19999999999999
20
-250.30000000000001
10
-192.29999999999993
20
-250.29999999999995
10
-192.29999999999995
20
-254.29999999999993
10
-179.19999999999993
20
-254.29999999999995
10
-179.19999999999999
20
-250.30000000000001
10
-167.29999999999993
20
-250.29999999999995
10
-167.29999999999995
20
-254.29999999999993
10
-154.19999999999996
20
-254.29999999999995
10
-154.19999999999999
20
-250.30000000000001
10
-142.29999999999993
20
-250.29999999999995
10
-142.29999999999995
20
-254.29999999999993
10
-129.79999999999995
20
-254.29999999999995
10
-129.79999999999995
20
-262.19999999999999
10
-133.79999999999995
20
-262.19999999999993
10
-133.79999999999998
20
-275.30000000000001
10
-129.79999999999998
20
-275.30000000000001
10
-129.79999999999995
20
-287.19999999999999
10
-133.79999999999998
20
-287.20000000000005
10
-133.79999999999993
20
-300.30000000000001
10
-129.79999999999993
20
-300.30000000000001
10
-129.79999999999995
20
-312.19999999999999
10
-133.79999999999995
20
-312.20000000000005
10
-133.79999999999993
20
-325.30000000000001
10
-129.79999999999993
20
-325.30000000000001
10
-129.79999999999993
20
-337.19999999999999
10
-133.79999999999993
20
-337.19999999999999
10
-133.79999999999993
20
-354.30000000000177
10
-120.69999999999993
20
-354.30000000000177
10
-120.69999999999995
20
-350.30000000000155
10
-108.79999999999993
20
-350.30000000000007
10
-108.79999999999993
20
-354.30000000000177
10
-95.699999999999932
20
-354.30000000000177
10
-95.699999999999946
20
-350.30000000000155
10
-83.799999999999926
20
-350.30000000000007
10
-83.799999999999926
20
-354.30000000000177
10
-70.699999999999918
20
-354.30000000000177
10
-70.699999999999946
20
-350.30000000000155
10
-58.799999999999926
20
-350.30000000000007
10
-58.799999999999926
20
-354.30000000000177
10
-45.699999999999925
20
-354.30000000000177
10
-45.699999999999939
20
-350.30000000000155
10
-33.799999999999926
20
-350.30000000000007
10
-33.799999999999926
20
-354.30000000000177
10
-20.699999999999928
20
-354.30000000000177
10
-20.699999999999946
20
-350.30000000000155
10
-8.7999999999999261
20
-350.30000000000007
10
-8.7999999999999261
20
-354.30000000000177
10
4.3000000000000771
20
-354.30000000000177
10
4.2999999999999483
20
-337.19999999999999
10
0.29999999999996474
20
-337.19999999999999
10
0.29999999999996446
20
-325.30000000000001
10
4.2999999999999687
20
-325.30000000000001
10
4.2999999999999865
20
-312.20000000000005
10
0.29999999999998139
20
-312.19999999999999
10
0.29999999999996485
20
-300.30000000000001
10
4.299999999999967
20
-300.30000000000001
10
4.3000000000000052
20
-287.19999999999999
10
0.29999999999998306
20
-287.19999999999993
10
0.2999999999999996
20
-275.29999999999995
10
4.3000000000000052
20
-275.29999999999995
10
4.299999999999967
20
-262.19999999999993
10
0.29999999999996529
20
-262.19999999999993
10
0.29999999999998778
20
-254.30000000000001
10
12.799999999999967
20
-254.29999999999993
10
12.799999999999931
20
-250.29999999999995
10
24.699999999999996
20
-250.30000000000001
10
24.69999999999996
20
-254.29999999999995
10
37.799999999999969
20
-254.29999999999993
10
37.799999999999933
20
-250.29999999999995
10
49.699999999999903
20
-250.2999999999999
10
49.699999999999974
20
-254.29999999999995
10
62.799999999999969
20
-254.29999999999993
10
62.799999999999933
20
-250.29999999999995
10
74.699999999999903
20
-250.2999999999999
10
74.699999999999974
20
-254.29999999999995
10
87.799999999999955
20
-254.29999999999993
10
87.799999999999926
20
-250.29999999999995
10
104.3
20
-250.30000000000013
10
104.30000000000075
20
-237.19999999999874
10
100.30000000000075
20
-237.19999999999854
10
100.30000000000143
20
-225.2999999999987
10
104.30000000000143
20
-225.29999999999873
10
104.30000000000143
20
-212.19999999999871
10
100.30000000000145
20
-212.19999999999871
10
100.30000000000145
20
-200.29999999999873
10
104.30000000000143
20
-200.29999999999873
10
104.30000000000143
20
-187.19999999999871
10
100.30000000000145
20
-187.19999999999871
10
100.30000000000145
20
-95.999999999998693
42
0.32391124035763552
10
27.62356949117018
20
4.4153622007177873
10
27.623569491170215
20
0.29999999999986093
10
12.800000000000001
20
0.29999999999999721
10
12.800000000000001
20
4.2999999999999865
10
0.30000000000003579
20
4.2999999999999865
10
0.30000000000010396
20
12.199999999999857
10
4.3000000000000931
20
12.199999999999857
10
4.3000000000000931
20
25.299999999999855
10
-133.80000000000024
20
25.299999999999908
10
-133.80000000000024
20
12.199999999999909
10
-129.80000000000021
20
12.199999999999902
10
-129.79999999999998
20
4.2999999999999927
10
-142.29999999999998
20
4.3000000000000043
10
-142.29999999999998
20
0.30000000000000082
10
-157.1235694911702
20
0.29999999999985472
10
-157.1235694911702
20
4.415362200717734
42
0.32391124035763541
10
-229.80000000000138
20
-95.999999999998693
10
-229.80000000000143
20
-187.19999999999871
10
-233.8000000000014
20
-187.19999999999871
10
-233.8000000000014
20
-200.29999999999873
0
LINE
5
222
100
AcDbEntity
8
0
100
AcDbLine
10
3.3306690738754696e-14
20
3.9999999999999858
30
0
11
0
21
0
31
0
0
LINE
5
223
100
AcDbEntity
8
0
100
AcDbLine
10
0
20
0
30
0
11
1.3814521613350808e-17
21
-250
31
0
0
LINE
5
224
100
AcDbEntity
8
0
100
AcDbLine
10
1.3814521613350808e-17
20
-250
30
0
11
-1.1368683772161596e-14
21
-254
31
0
0
LINE
5
225
100
AcDbEntity
8
0
100
AcDbLine
10
-129.49999999999997
20
-253.99999999999994
30
0
11
-129.49999999999994
21
-250
31
0
0
LINE
5
226
100
AcDbEntity
8
0
100
AcDbLine
10
-129.49999999999994
20
-250
30
0
11
1.3814521613350808e-17
21
-250
31
0
0
LINE
5
227
100
AcDbEntity
8
0
100
AcDbLine
10
-129.5
20
3.9999999999999925
30
0
11
-129.49999999999986
21
0
31
0
0
LINE
5
228
100
AcDbEntity
8
0
100
AcDbLine
10
-129.49999999999986
20
0
30
0
11
0
21
0
31
0
0
LINE
5
229
100
AcDbEntity
8
0
100
AcDbLine
10
-129.49999999999994
20
-250
30
0
11
-129.49999999999986
21
0
31
0
0
ENDSEC
0
SECTION
2
OBJECTS
0
DICTIONARY
5
C
100
AcDbDictionary
3
ACAD_GROUP
350
D
3
ACAD_MLINESTYLE
350
17
0
DICTIONARY
5
D
100
AcDbDictionary
0
DICTIONARY
5
1A
330
C
100
AcDbDictionary
0
DICTIONARY
5
17
100
AcDbDictionary
0
ENDSEC
0
EOF
