0
SECTION
2
HEADER
9
$INSUNITS
70
4
9
$ACADVER
1
AC1014
9
$HANDSEED
5
FFFF
0
ENDSEC
0
SECTION
2
TABLES
0
TABLE
2
VPORT
5
8
100
AcDbSymbolTable
0
ENDTAB
0
TABLE
2
LTYPE
5
5
100
AcDbSymbolTable
0
LTYPE
5
14
100
AcDbSymbolTableRecord
100
AcDbLinetypeTableRecord
2
BYBLOCK
70
0
0
LTYPE
5
15
100
AcDbSymbolTableRecord
100
AcDbLinetypeTableRecord
2
BYLAYER
70
0
0
LTYPE
5
16
100
AcDbSymbolTableRecord
100
AcDbLinetypeTableRecord
2
DASHED
70
0
3
Dashed __ __ __ __ __ __ __ __ __ __ __ __ __ _
72
65
73
2
40
0.75
49
0.5
74
0
49
-0.25
74
0
0
ENDTAB
0
TABLE
2
LAYER
5
2
100
AcDbSymbolTable
70
2
0
LAYER
5
50
100
AcDbSymbolTableRecord
100
AcDbLayerTableRecord
2
0
70
0
62
7
6
CONTINUOUS
0
ENDTAB
0
TABLE
2
STYLE
5
3
100
AcDbSymbolTable
70
1
0
STYLE
5
11
100
AcDbSymbolTableRecord
100
AcDbTextStyleTableRecord
2
STANDARD
70
0
0
ENDTAB
0
TABLE
2
VIEW
5
6
100
AcDbSymbolTable
70
0
0
ENDTAB
0
TABLE
2
UCS
5
7
100
AcDbSymbolTable
70
0
0
ENDTAB
0
TABLE
2
APPID
5
9
100
AcDbSymbolTable
70
2
0
APPID
5
12
100
AcDbSymbolTableRecord
100
AcDbRegAppTableRecord
2
ACAD
70
0
0
ENDTAB
0
TABLE
2
DIMSTYLE
5
A
100
AcDbSymbolTable
70
1
0
ENDTAB
0
TABLE
2
BLOCK_RECORD
5
1
100
AcDbSymbolTable
70
1
0
BLOCK_RECORD
5
1F
100
AcDbSymbolTableRecord
100
AcDbBlockTableRecord
2
*MODEL_SPACE
0
BLOCK_RECORD
5
1B
100
AcDbSymbolTableRecord
100
AcDbBlockTableRecord
2
*PAPER_SPACE
0
ENDTAB
0
ENDSEC
0
SECTION
2
BLOCKS
0
BLOCK
5
20
100
AcDbEntity
100
AcDbBlockBegin
2
*MODEL_SPACE
0
ENDBLK
5
21
100
AcDbEntity
100
AcDbBlockEnd
0
BLOCK
5
1C
100
AcDbEntity
100
AcDbBlockBegin
2
*PAPER_SPACE
0
ENDBLK
5
1D
100
AcDbEntity
100
AcDbBlockEnd
0
ENDSEC
0
SECTION
2
ENTITIES
0
POINT
5
100
100
AcDbEntity
8
0
100
AcDbPoint
10
82.935750056514692
20
140.48330748243626
30
0
0
POINT
5
101
100
AcDbEntity
8
0
100
AcDbPoint
10
14.185750056514692
20
140.48330748243626
30
0
0
LINE
5
102
100
AcDbEntity
8
0
100
AcDbLine
10
-54.564249943485308
20
-171.96869251756374
30
0
11
-54.564249943485308
21
59.131489017268741
31
0
0
LINE
5
103
100
AcDbEntity
8
0
100
AcDbLine
10
10.685750056514607
20
38.388450339579094
30
0
11
-47.564249943485422
21
38.388450339579094
31
0
0
LINE
5
104
100
AcDbEntity
8
0
100
AcDbLine
10
-17.189249943485407
20
41.674164625293386
30
0
11
-54.564249943485379
21
41.674164625293386
31
0
0
LINE
5
105
100
AcDbEntity
8
0
100
AcDbLine
10
10.685750056514607
20
25.817021768150532
30
0
11
-47.564249943485422
21
25.817021768150532
31
0
0
LINE
5
106
100
AcDbEntity
8
0
100
AcDbLine
10
-17.189249943485407
20
60.531307482436247
30
0
11
-54.564249943485379
21
60.531307482436247
31
0
0
LINE
5
107
100
AcDbEntity
8
0
100
AcDbLine
10
-17.189249943485407
20
47.959878911007685
30
0
11
-54.564249943485379
21
47.959878911007685
31
0
0
LINE
5
108
100
AcDbEntity
8
0
100
AcDbLine
10
-17.189249943485407
20
3.9598789110076638
30
0
11
-54.564249943485379
21
3.9598789110076638
31
0
0
LINE
5
109
100
AcDbEntity
8
0
100
AcDbLine
10
10.685750056514607
20
13.24559319672197
30
0
11
-47.564249943485422
21
13.24559319672197
31
0
0
LINE
5
110
100
AcDbEntity
8
0
100
AcDbLine
10
-17.189249943485407
20
-14.89726394613518
30
0
11
-54.564249943485379
21
-14.89726394613518
31
0
0
LINE
5
111
100
AcDbEntity
8
0
100
AcDbLine
10
10.685750056514607
20
32.102736053864831
30
0
11
-47.564249943485422
21
32.102736053864831
31
0
0
LINE
5
112
100
AcDbEntity
8
0
100
AcDbLine
10
-17.189249943485407
20
22.817021768150525
30
0
11
-54.564249943485379
21
22.817021768150525
31
0
0
LINE
5
113
100
AcDbEntity
8
0
100
AcDbLine
10
10.685750056514607
20
63.531307482436254
30
0
11
-47.564249943485422
21
63.531307482436254
31
0
0
LINE
5
114
100
AcDbEntity
8
0
100
AcDbLine
10
-54.564249943485308
20
59.131489017268741
30
0
11
-54.564249943485308
21
65.48330748243626
31
0
0
LINE
5
115
100
AcDbEntity
8
0
100
AcDbLine
10
-17.189249943485407
20
10.245593196721963
30
0
11
-54.564249943485379
21
10.245593196721963
31
0
0
LINE
5
116
100
AcDbEntity
8
0
100
AcDbLine
10
10.685750056514607
20
19.531307482436269
30
0
11
-47.564249943485422
21
19.531307482436269
31
0
0
LINE
5
117
100
AcDbEntity
8
0
100
AcDbLine
10
-17.189249943485407
20
54.245593196721948
30
0
11
-54.564249943485379
21
54.245593196721948
31
0
0
LINE
5
118
100
AcDbEntity
8
0
100
AcDbLine
10
-17.189249943485407
20
35.388450339579087
30
0
11
-54.564249943485379
21
35.388450339579087
31
0
0
LINE
5
119
100
AcDbEntity
8
0
100
AcDbLine
10
10.685750056514607
20
50.959878911007692
30
0
11
-47.564249943485422
21
50.959878911007692
31
0
0
LINE
5
120
100
AcDbEntity
8
0
100
AcDbLine
10
75.935750056514664
20
44.674164625293393
30
0
11
17.685750056514635
21
44.674164625293393
31
0
0
LINE
5
121
100
AcDbEntity
8
0
100
AcDbLine
10
78.935750056514706
20
136.48330748243626
30
0
11
78.935750056514706
21
132.23330748243626
31
0
0
LINE
5
122
100
AcDbEntity
8
0
100
AcDbLine
10
-50.564249943485322
20
136.48330748243626
30
0
11
-50.564249943485322
21
140.48330748243626
31
0
0
LINE
5
123
100
AcDbEntity
8
0
100
AcDbLine
10
82.935750056514692
20
47.959878911007685
30
0
11
52.560750056514678
21
47.959878911007685
31
0
0
LINE
5
124
100
AcDbEntity
8
0
100
AcDbLine
10
10.685750056514607
20
-55.897263946135176
30
0
11
-47.564249943485422
21
-55.897263946135176
31
0
0
LINE
5
125
100
AcDbEntity
8
0
100
AcDbLine
10
82.935750056514692
20
-2.3258353747066174
30
0
11
52.560750056514678
21
-2.3258353747066174
31
0
0
LINE
5
126
100
AcDbEntity
8
0
100
AcDbLine
10
75.935750056514664
20
50.959878911007692
30
0
11
17.685750056514635
21
50.959878911007692
31
0
0
LINE
5
127
100
AcDbEntity
8
0
100
AcDbLine
10
-17.189249943485407
20
-46.325835374706621
30
0
11
-54.564249943485379
21
-46.325835374706621
31
0
0
LINE
5
128
100
AcDbEntity
8
0
100
AcDbLine
10
75.935750056514664
20
-11.897263946135173
30
0
11
17.685750056514635
21
-11.897263946135173
31
0
0
LINE
5
129
100
AcDbEntity
8
0
100
AcDbLine
10
75.935750056514664
20
19.531307482436269
30
0
11
17.685750056514635
21
19.531307482436269
31
0
0
LINE
5
130
100
AcDbEntity
8
0
100
AcDbLine
10
-17.189249943485407
20
-128.04012108899232
30
0
11
-54.564249943485379
21
-128.04012108899232
31
0
0
LINE
5
131
100
AcDbEntity
8
0
100
AcDbLine
10
10.685750056514607
20
-62.182978231849475
30
0
11
-47.564249943485422
21
-62.182978231849475
31
0
0
LINE
5
132
100
AcDbEntity
8
0
100
AcDbLine
10
10.685750056514607
20
-99.897263946135197
30
0
11
-47.564249943485422
21
-99.897263946135197
31
0
0
LINE
5
133
100
AcDbEntity
8
0
100
AcDbLine
10
-17.189249943485407
20
-40.040121088992322
30
0
11
-54.564249943485379
21
-40.040121088992322
31
0
0
LINE
5
134
100
AcDbEntity
8
0
100
AcDbLine
10
10.685750056514607
20
-74.754406803278044
30
0
11
-47.564249943485422
21
-74.754406803278044
31
0
0
LINE
5
135
100
AcDbEntity
8
0
100
AcDbLine
10
-17.189249943485407
20
-109.18297823184946
30
0
11
-54.564249943485379
21
-109.18297823184946
31
0
0
LINE
5
136
100
AcDbEntity
8
0
100
AcDbLine
10
75.935750056514664
20
63.531307482436254
30
0
11
17.685750056514635
21
63.531307482436254
31
0
0
LINE
5
137
100
AcDbEntity
8
0
100
AcDbLine
10
75.935750056514664
20
0.67416462529338972
30
0
11
17.685750056514635
21
0.67416462529338972
31
0
0
LINE
5
138
100
AcDbEntity
8
0
100
AcDbLine
10
-50.564249943485322
20
132.23330748243626
30
0
11
-50.564249943485322
21
127.98330748243626
31
0
0
LINE
5
139
100
AcDbEntity
8
0
100
AcDbLine
10
82.935750056514692
20
-14.89726394613518
30
0
11
52.560750056514678
21
-14.89726394613518
31
0
0
LINE
5
140
100
AcDbEntity
8
0
100
AcDbLine
10
48.060750056514649
20
-96.611549660420906
30
0
11
-12.689249943485379
21
-96.611549660420906
31
0
0
LINE
5
141
100
AcDbEntity
8
0
100
AcDbLine
10
75.935750056514664
20
-87.3258353747066
30
0
11
17.685750056514635
21
-87.3258353747066
31
0
0
LINE
5
142
100
AcDbEntity
8
0
100
AcDbLine
10
48.060750056514649
20
-115.46869251756377
30
0
11
-12.689249943485379
21
-115.46869251756377
31
0
0
LINE
5
143
100
AcDbEntity
8
0
100
AcDbLine
10
-4.5642499434853079
20
140.48330748243626
30
0
11
7.9357500565146921
21
140.48330748243626
31
0
0
LINE
5
144
100
AcDbEntity
8
0
100
AcDbLine
10
20.435750056514692
20
140.48330748243626
30
0
11
20.435750056514692
21
144.48330748243626
31
0
0
LINE
5
145
100
AcDbEntity
8
0
100
AcDbLine
10
10.685750056514607
20
-43.325835374706614
30
0
11
-47.564249943485422
21
-43.325835374706614
31
0
0
LINE
5
146
100
AcDbEntity
8
0
100
AcDbLine
10
78.935750056514706
20
140.48330748243626
30
0
11
70.435750056514692
21
140.48330748243626
31
0
0
LINE
5
147
100
AcDbEntity
8
0
100
AcDbLine
10
48.060750056514649
20
-128.04012108899232
30
0
11
-12.689249943485379
21
-128.04012108899232
31
0
0
LINE
5
148
100
AcDbEntity
8
0
100
AcDbLine
10
-42.064249943485308
20
140.48330748243626
30
0
11
-42.064249943485308
21
144.48330748243626
31
0
0
LINE
5
149
100
AcDbEntity
8
0
100
AcDbLine
10
-42.064249943485308
20
144.48330748243626
30
0
11
-29.564249943485308
21
144.48330748243626
31
0
0
LINE
5
150
100
AcDbEntity
8
0
100
AcDbLine
10
75.935750056514664
20
-5.6115496604208914
30
0
11
17.685750056514635
21
-5.6115496604208914
31
0
0
LINE
5
151
100
AcDbEntity
8
0
100
AcDbLine
10
75.935750056514664
20
13.24559319672197
30
0
11
17.685750056514635
21
13.24559319672197
31
0
0
LINE
5
152
100
AcDbEntity
8
0
100
AcDbLine
10
82.935750056514692
20
22.817021768150525
30
0
11
52.560750056514678
21
22.817021768150525
31
0
0
LINE
5
153
100
AcDbEntity
8
0
100
AcDbLine
10
-17.189249943485407
20
-134.32583537470663
30
0
11
-54.564249943485379
21
-134.32583537470663
31
0
0
LINE
5
154
100
AcDbEntity
8
0
100
AcDbLine
10
78.935750056514706
20
102.98330748243626
30
0
11
82.935750056514692
21
102.98330748243626
31
0
0
LINE
5
155
100
AcDbEntity
8
0
100
AcDbLine
10
-17.189249943485407
20
-96.611549660420906
30
0
11
-54.564249943485379
21
-96.611549660420906
31
0
0
LINE
5
156
100
AcDbEntity
8
0
100
AcDbLine
10
10.685750056514607
20
-87.3258353747066
30
0
11
-47.564249943485422
21
-87.3258353747066
31
0
0
LINE
5
157
100
AcDbEntity
8
0
100
AcDbLine
10
-54.564249943485308
20
90.48330748243626
30
0
11
-50.564249943485322
21
90.48330748243626
31
0
0
LINE
5
158
100
AcDbEntity
8
0
100
AcDbLine
10
75.935750056514664
20
25.817021768150532
30
0
11
17.685750056514635
21
25.817021768150532
31
0
0
LINE
5
159
100
AcDbEntity
8
0
100
AcDbLine
10
-17.189249943485407
20
-33.754406803278044
30
0
11
-54.564249943485379
21
-33.754406803278044
31
0
0
LINE
5
160
100
AcDbEntity
8
0
100
AcDbLine
10
-54.564249943485308
20
115.48330748243626
30
0
11
-50.564249943485322
21
115.48330748243626
31
0
0
LINE
5
161
100
AcDbEntity
8
0
100
AcDbLine
10
82.935750056514692
20
3.9598789110076638
30
0
11
52.560750056514678
21
3.9598789110076638
31
0
0
LINE
5
162
100
AcDbEntity
8
0
100
AcDbLine
10
-17.189249943485407
20
-77.754406803278044
30
0
11
-54.564249943485379
21
-77.754406803278044
31
0
0
LINE
5
163
100
AcDbEntity
8
0
100
AcDbLine
10
10.685750056514607
20
-81.040121088992336
30
0
11
-47.564249943485422
21
-81.040121088992336
31
0
0
LINE
5
164
100
AcDbEntity
8
0
100
AcDbLine
10
82.935750056514692
20
-128.04012108899232
30
0
11
52.560750056514678
21
-128.04012108899232
31
0
0
LINE
5
165
100
AcDbEntity
8
0
100
AcDbLine
10
82.935750056514692
20
102.98330748243626
30
0
11
82.935750056514692
21
90.48330748243626
31
0
0
LINE
5
166
100
AcDbEntity
8
0
100
AcDbLine
10
10.685750056514607
20
-68.468692517563738
30
0
11
-47.564249943485422
21
-68.468692517563738
31
0
0
LINE
5
167
100
AcDbEntity
8
0
100
AcDbLine
10
-17.189249943485407
20
-121.75440680327803
30
0
11
-54.564249943485379
21
-121.75440680327803
31
0
0
LINE
5
168
100
AcDbEntity
8
0
100
AcDbLine
10
-17.189249943485407
20
-84.040121088992308
30
0
11
-54.564249943485379
21
-84.040121088992308
31
0
0
LINE
5
169
100
AcDbEntity
8
0
100
AcDbLine
10
10.685750056514607
20
-30.754406803278034
30
0
11
-47.564249943485422
21
-30.754406803278034
31
0
0
LINE
5
170
100
AcDbEntity
8
0
100
AcDbLine
10
75.935750056514664
20
6.9598789110076709
30
0
11
17.685750056514635
21
6.9598789110076709
31
0
0
LINE
5
171
100
AcDbEntity
8
0
100
AcDbLine
10
10.685750056514607
20
-93.611549660420906
30
0
11
-47.564249943485422
21
-93.611549660420906
31
0
0
LINE
5
172
100
AcDbEntity
8
0
100
AcDbLine
10
82.935750056514692
20
-65.182978231849447
30
0
11
52.560750056514678
21
-65.182978231849447
31
0
0
LINE
5
173
100
AcDbEntity
8
0
100
AcDbLine
10
82.935750056514692
20
-84.040121088992308
30
0
11
52.560750056514678
21
-84.040121088992308
31
0
0
LINE
5
174
100
AcDbEntity
8
0
100
AcDbLine
10
78.935750056514706
20
115.48330748243626
30
0
11
78.935750056514706
21
102.98330748243626
31
0
0
LINE
5
175
100
AcDbEntity
8
0
100
AcDbLine
10
70.435750056514692
20
144.48330748243626
30
0
11
57.935750056514692
21
144.48330748243626
31
0
0
LINE
5
176
100
AcDbEntity
8
0
100
AcDbLine
10
82.935750056514692
20
-8.6115496604208985
30
0
11
52.560750056514678
21
-8.6115496604208985
31
0
0
LINE
5
177
100
AcDbEntity
8
0
100
AcDbLine
10
-17.189249943485407
20
-140.61154966042091
30
0
11
-54.564249943485379
21
-140.61154966042091
31
0
0
LINE
5
178
100
AcDbEntity
8
0
100
AcDbLine
10
82.935750056514692
20
127.98330748243626
30
0
11
82.935750056514692
21
115.48330748243626
31
0
0
LINE
5
179
100
AcDbEntity
8
0
100
AcDbLine
10
-50.564249943485322
20
115.48330748243626
30
0
11
-50.564249943485322
21
102.98330748243626
31
0
0
LINE
5
180
100
AcDbEntity
8
0
100
AcDbLine
10
70.435750056514692
20
140.48330748243626
30
0
11
70.435750056514692
21
144.48330748243626
31
0
0
LINE
5
181
100
AcDbEntity
8
0
100
AcDbLine
10
78.935750056514706
20
127.98330748243626
30
0
11
82.935750056514692
21
127.98330748243626
31
0
0
LINE
5
182
100
AcDbEntity
8
0
100
AcDbLine
10
-17.189249943485407
20
-146.89726394613518
30
0
11
-54.564249943485379
21
-146.89726394613518
31
0
0
LINE
5
183
100
AcDbEntity
8
0
100
AcDbLine
10
82.935750056514692
20
-27.46869251756376
30
0
11
52.560750056514678
21
-27.46869251756376
31
0
0
LINE
5
184
100
AcDbEntity
8
0
100
AcDbLine
10
82.935750056514692
20
41.674164625293386
30
0
11
52.560750056514678
21
41.674164625293386
31
0
0
LINE
5
185
100
AcDbEntity
8
0
100
AcDbLine
10
75.935750056514664
20
-37.040121088992315
30
0
11
17.685750056514635
21
-37.040121088992315
31
0
0
LINE
5
186
100
AcDbEntity
8
0
100
AcDbLine
10
45.435750056514692
20
144.48330748243626
30
0
11
32.935750056514692
21
144.48330748243626
31
0
0
LINE
5
187
100
AcDbEntity
8
0
100
AcDbLine
10
-50.564249943485322
20
140.48330748243626
30
0
11
-42.064249943485308
21
140.48330748243626
31
0
0
LINE
5
188
100
AcDbEntity
8
0
100
AcDbLine
10
-54.564249943485308
20
127.98330748243626
30
0
11
-54.564249943485308
21
115.48330748243626
31
0
0
LINE
5
189
100
AcDbEntity
8
0
100
AcDbLine
10
75.935750056514664
20
-24.468692517563753
30
0
11
17.685750056514635
21
-24.468692517563753
31
0
0
LINE
5
190
100
AcDbEntity
8
0
100
AcDbLine
10
57.935750056514692
20
144.48330748243626
30
0
11
57.935750056514692
21
140.48330748243626
31
0
0
LINE
5
191
100
AcDbEntity
8
0
100
AcDbLine
10
82.935750056514692
20
-159.46869251756371
30
0
11
82.935750056514692
21
-156.46869251756371
31
0
0
LINE
5
192
100
AcDbEntity
8
0
100
AcDbLine
10
75.935750056514664
20
-143.89726394613518
30
0
11
17.685750056514635
21
-143.89726394613518
31
0
0
LINE
5
193
100
AcDbEntity
8
0
100
AcDbLine
10
10.685750056514607
20
-137.61154966042088
30
0
11
-47.564249943485422
21
-137.61154966042088
31
0
0
LINE
5
194
100
AcDbEntity
8
0
100
AcDbLine
10
75.935750056514664
20
-81.040121088992336
30
0
11
17.685750056514635
21
-81.040121088992336
31
0
0
LINE
5
195
100
AcDbEntity
8
0
100
AcDbLine
10
-17.064249943485308
20
144.48330748243626
30
0
11
-4.5642499434853079
21
144.48330748243626
31
0
0
LINE
5
196
100
AcDbEntity
8
0
100
AcDbLine
10
-50.564249943485322
20
127.98330748243626
30
0
11
-54.564249943485308
21
127.98330748243626
31
0
0
LINE
5
197
100
AcDbEntity
8
0
100
AcDbLine
10
10.685750056514607
20
-112.46869251756372
30
0
11
-47.564249943485422
21
-112.46869251756372
31
0
0
LINE
5
198
100
AcDbEntity
8
0
100
AcDbLine
10
-54.564249943485308
20
102.98330748243626
30
0
11
-54.564249943485308
21
90.48330748243626
31
0
0
LINE
5
199
100
AcDbEntity
8
0
100
AcDbLine
10
78.935750056514706
20
77.98330748243626
30
0
11
82.935750056514692
21
77.98330748243626
31
0
0
LINE
5
200
100
AcDbEntity
8
0
100
AcDbLine
10
10.685750056514607
20
-131.32583537470657
30
0
11
-47.564249943485422
21
-131.32583537470657
31
0
0
LINE
5
201
100
AcDbEntity
8
0
100
AcDbLine
10
75.935750056514664
20
-18.182978231849454
30
0
11
17.685750056514635
21
-18.182978231849454
31
0
0
LINE
5
202
100
AcDbEntity
8
0
100
AcDbLine
10
-29.564249943485308
20
144.48330748243626
30
0
11
-29.564249943485308
21
140.48330748243626
31
0
0
LINE
5
203
100
AcDbEntity
8
0
100
AcDbLine
10
75.935750056514664
20
-99.897263946135197
30
0
11
17.685750056514635
21
-99.897263946135197
31
0
0
LINE
5
204
100
AcDbEntity
8
0
100
AcDbLine
10
-4.5642499434853079
20
144.48330748243626
30
0
11
-4.5642499434853079
21
140.48330748243626
31
0
0
LINE
5
205
100
AcDbEntity
8
0
100
AcDbLine
10
82.935750056514692
20
35.388450339579087
30
0
11
52.560750056514678
21
35.388450339579087
31
0
0
LINE
5
206
100
AcDbEntity
8
0
100
AcDbLine
10
75.935750056514664
20
32.102736053864831
30
0
11
17.685750056514635
21
32.102736053864831
31
0
0
LINE
5
207
100
AcDbEntity
8
0
100
AcDbLine
10
82.935750056514692
20
-109.18297823184946
30
0
11
52.560750056514678
21
-109.18297823184946
31
0
0
LINE
5
208
100
AcDbEntity
8
0
100
AcDbLine
10
-50.564249943485322
20
77.98330748243626
30
0
11
-54.564249943485308
21
77.98330748243626
31
0
0
LINE
5
209
100
AcDbEntity
8
0
100
AcDbLine
10
82.935750056514692
20
54.245593196721948
30
0
11
52.560750056514678
21
54.245593196721948
31
0
0
LINE
5
210
100
AcDbEntity
8
0
100
AcDbLine
10
75.935750056514664
20
-68.468692517563738
30
0
11
17.685750056514635
21
-68.468692517563738
31
0
0
LINE
5
211
100
AcDbEntity
8
0
100
AcDbLine
10
78.935750056514706
20
136.48330748243626
30
0
11
78.935750056514706
21
140.48330748243626
31
0
0
LINE
5
212
100
AcDbEntity
8
0
100
AcDbLine
10
82.935750056514692
20
-77.754406803278044
30
0
11
52.560750056514678
21
-77.754406803278044
31
0
0
LINE
5
213
100
AcDbEntity
8
0
100
AcDbLine
10
75.935750056514664
20
38.388450339579094
30
0
11
17.685750056514635
21
38.388450339579094
31
0
0
LINE
5
214
100
AcDbEntity
8
0
100
AcDbLine
10
82.935750056514692
20
90.48330748243626
30
0
11
78.935750056514706
21
90.48330748243626
31
0
0
LINE
5
215
100
AcDbEntity
8
0
100
AcDbLine
10
10.685750056514607
20
-143.89726394613518
30
0
11
-47.564249943485422
21
-143.89726394613518
31
0
0
LINE
5
216
100
AcDbEntity
8
0
100
AcDbLine
10
32.935750056514692
20
144.48330748243626
30
0
11
32.935750056514692
21
140.48330748243626
31
0
0
LINE
5
217
100
AcDbEntity
8
0
100
AcDbLine
10
75.935750056514664
20
57.245593196721956
30
0
11
17.685750056514635
21
57.245593196721956
31
0
0
LINE
5
218
100
AcDbEntity
8
0
100
AcDbLine
10
75.935750056514664
20
-62.182978231849475
30
0
11
17.685750056514635
21
-62.182978231849475
31
0
0
LINE
5
219
100
AcDbEntity
8
0
100
AcDbLine
10
82.935750056514692
20
-146.89726394613518
30
0
11
52.560750056514678
21
-146.89726394613518
31
0
0
LINE
5
220
100
AcDbEntity
8
0
100
AcDbLine
10
10.685750056514607
20
-150.18297823184946
30
0
11
-47.564249943485422
21
-150.18297823184946
31
0
0
LINE
5
221
100
AcDbEntity
8
0
100
AcDbLine
10
-17.064249943485308
20
140.48330748243626
30
0
11
-17.064249943485308
21
144.48330748243626
31
0
0
LINE
5
222
100
AcDbEntity
8
0
100
AcDbLine
10
82.935750056514692
20
-58.897263946135183
30
0
11
52.560750056514678
21
-58.897263946135183
31
0
0
LINE
5
223
100
AcDbEntity
8
0
100
AcDbLine
10
75.935750056514664
20
-30.754406803278034
30
0
11
17.685750056514635
21
-30.754406803278034
31
0
0
LINE
5
224
100
AcDbEntity
8
0
100
AcDbLine
10
-17.189249943485407
20
-102.89726394613517
30
0
11
-54.564249943485379
21
-102.89726394613517
31
0
0
LINE
5
225
100
AcDbEntity
8
0
100
AcDbLine
10
75.935750056514664
20
-112.46869251756372
30
0
11
17.685750056514635
21
-112.46869251756372
31
0
0
LINE
5
226
100
AcDbEntity
8
0
100
AcDbLine
10
45.435750056514692
20
140.48330748243626
30
0
11
45.435750056514692
21
144.48330748243626
31
0
0
LINE
5
227
100
AcDbEntity
8
0
100
AcDbLine
10
75.935750056514664
20
-93.611549660420906
30
0
11
17.685750056514635
21
-93.611549660420906
31
0
0
LINE
5
228
100
AcDbEntity
8
0
100
AcDbLine
10
57.935750056514692
20
140.48330748243626
30
0
11
45.435750056514692
21
140.48330748243626
31
0
0
LINE
5
229
100
AcDbEntity
8
0
100
AcDbLine
10
75.935750056514664
20
-55.897263946135176
30
0
11
17.685750056514635
21
-55.897263946135176
31
0
0
LINE
5
230
100
AcDbEntity
8
0
100
AcDbLine
10
82.935750056514692
20
-71.468692517563738
30
0
11
52.560750056514678
21
-71.468692517563738
31
0
0
LINE
5
231
100
AcDbEntity
8
0
100
AcDbLine
10
78.935750056514706
20
90.48330748243626
30
0
11
78.935750056514706
21
77.98330748243626
31
0
0
LINE
5
232
100
AcDbEntity
8
0
100
AcDbLine
10
10.685750056514607
20
-118.75440680327802
30
0
11
-47.564249943485422
21
-118.75440680327802
31
0
0
LINE
5
233
100
AcDbEntity
8
0
100
AcDbLine
10
75.935750056514664
20
-49.611549660420891
30
0
11
17.685750056514635
21
-49.611549660420891
31
0
0
LINE
5
234
100
AcDbEntity
8
0
100
AcDbLine
10
82.935750056514692
20
-96.611549660420906
30
0
11
52.560750056514678
21
-96.611549660420906
31
0
0
LINE
5
235
100
AcDbEntity
8
0
100
AcDbLine
10
82.935750056514692
20
-171.96869251756371
30
0
11
82.935750056514692
21
-159.46869251756371
31
0
0
LINE
5
236
100
AcDbEntity
8
0
100
AcDbLine
10
75.935750056514664
20
-118.75440680327802
30
0
11
17.685750056514635
21
-118.75440680327802
31
0
0
LINE
5
237
100
AcDbEntity
8
0
100
AcDbLine
10
75.935750056514664
20
-137.61154966042088
30
0
11
17.685750056514635
21
-137.61154966042088
31
0
0
LINE
5
238
100
AcDbEntity
8
0
100
AcDbLine
10
75.935750056514664
20
-131.32583537470657
30
0
11
17.685750056514635
21
-131.32583537470657
31
0
0
LINE
5
239
100
AcDbEntity
8
0
100
AcDbLine
10
10.685750056514607
20
-156.46869251756374
30
0
11
-47.564249943485422
21
-156.46869251756374
31
0
0
LINE
5
240
100
AcDbEntity
8
0
100
AcDbLine
10
75.935750056514664
20
-150.18297823184946
30
0
11
17.685750056514635
21
-150.18297823184946
31
0
0
LINE
5
241
100
AcDbEntity
8
0
100
AcDbLine
10
82.935750056514692
20
-134.32583537470663
30
0
11
52.560750056514678
21
-134.32583537470663
31
0
0
LINE
5
242
100
AcDbEntity
8
0
100
AcDbLine
10
82.935750056514692
20
-159.46869251756371
30
0
11
52.560750056514678
21
-159.46869251756374
31
0
0
LINE
5
243
100
AcDbEntity
8
0
100
AcDbLine
10
75.935750056514664
20
-125.04012108899232
30
0
11
17.685750056514635
21
-125.04012108899232
31
0
0
LINE
5
244
100
AcDbEntity
8
0
100
AcDbLine
10
82.935750056514692
20
-115.46869251756377
30
0
11
52.560750056514678
21
-115.46869251756377
31
0
0
LINE
5
245
100
AcDbEntity
8
0
100
AcDbLine
10
78.935750056514706
20
132.23330748243626
30
0
11
78.935750056514706
21
127.98330748243626
31
0
0
LINE
5
246
100
AcDbEntity
8
0
100
AcDbLine
10
82.935750056514692
20
-121.75440680327803
30
0
11
52.560750056514678
21
-121.75440680327803
31
0
0
LINE
5
247
100
AcDbEntity
8
0
100
AcDbLine
10
75.935750056514664
20
-106.18297823184946
30
0
11
17.685750056514635
21
-106.18297823184946
31
0
0
LINE
5
248
100
AcDbEntity
8
0
100
AcDbLine
10
75.935750056514664
20
-74.754406803278044
30
0
11
17.685750056514635
21
-74.754406803278044
31
0
0
LINE
5
249
100
AcDbEntity
8
0
100
AcDbLine
10
82.935750056514692
20
-102.89726394613517
30
0
11
52.560750056514678
21
-102.89726394613517
31
0
0
LINE
5
250
100
AcDbEntity
8
0
100
AcDbLine
10
-17.189249943485407
20
-159.4686925175638
30
0
11
-54.564249943485379
21
-159.4686925175638
31
0
0
LINE
5
251
100
AcDbEntity
8
0
100
AcDbLine
10
75.935750056514664
20
-43.325835374706614
30
0
11
17.685750056514635
21
-43.325835374706614
31
0
0
LINE
5
252
100
AcDbEntity
8
0
100
AcDbLine
10
75.935750056514664
20
-156.46869251756374
30
0
11
17.685750056514635
21
-156.46869251756374
31
0
0
LINE
5
253
100
AcDbEntity
8
0
100
AcDbLine
10
82.935750056514692
20
-140.61154966042091
30
0
11
52.560750056514678
21
-140.61154966042091
31
0
0
LINE
5
254
100
AcDbEntity
8
0
100
AcDbLine
10
82.935750056514692
20
-153.18297823184946
30
0
11
52.560750056514678
21
-153.18297823184946
31
0
0
LINE
5
255
100
AcDbEntity
8
0
100
AcDbLine
10
48.060750056514649
20
-77.754406803278044
30
0
11
-12.689249943485379
21
-77.754406803278044
31
0
0
LINE
5
256
100
AcDbEntity
8
0
100
AcDbLine
10
10.685750056514607
20
0.67416462529338972
30
0
11
-47.564249943485422
21
0.67416462529338972
31
0
0
LINE
5
257
100
AcDbEntity
8
0
100
AcDbLine
10
10.685750056514607
20
44.674164625293393
30
0
11
-47.564249943485422
21
44.674164625293393
31
0
0
LINE
5
258
100
AcDbEntity
8
0
100
AcDbLine
10
82.935750056514692
20
77.98330748243626
30
0
11
82.935750056514692
21
65.48330748243626
31
0
0
LINE
5
259
100
AcDbEntity
8
0
100
AcDbLine
10
48.060750056514649
20
16.531307482436262
30
0
11
-12.689249943485379
21
16.531307482436262
31
0
0
LINE
5
260
100
AcDbEntity
8
0
100
AcDbLine
10
48.060750056514649
20
-71.468692517563738
30
0
11
-12.689249943485379
21
-71.468692517563738
31
0
0
LINE
5
261
100
AcDbEntity
8
0
100
AcDbLine
10
48.060750056514649
20
-27.46869251756376
30
0
11
-12.689249943485379
21
-27.46869251756376
31
0
0
LINE
5
262
100
AcDbEntity
8
0
100
AcDbLine
10
7.9357500565146921
20
144.48330748243626
30
0
11
14.185750056514692
21
144.48330748243626
31
0
0
LINE
5
263
100
AcDbEntity
8
0
100
AcDbLine
10
48.060750056514649
20
-84.040121088992308
30
0
11
-12.689249943485379
21
-84.040121088992308
31
0
0
LINE
5
264
100
AcDbEntity
8
0
100
AcDbLine
10
48.060750056514649
20
-52.611549660420906
30
0
11
-12.689249943485379
21
-52.611549660420906
31
0
0
LINE
5
265
100
AcDbEntity
8
0
100
AcDbLine
10
48.060750056514649
20
-65.182978231849447
30
0
11
-12.689249943485379
21
-65.182978231849447
31
0
0
LINE
5
266
100
AcDbEntity
8
0
100
AcDbLine
10
48.060750056514649
20
-90.3258353747066
30
0
11
-12.689249943485379
21
-90.3258353747066
31
0
0
LINE
5
267
100
AcDbEntity
8
0
100
AcDbLine
10
48.060750056514649
20
-46.325835374706621
30
0
11
-12.689249943485379
21
-46.325835374706621
31
0
0
LINE
5
268
100
AcDbEntity
8
0
100
AcDbLine
10
48.060750056514649
20
-58.897263946135183
30
0
11
-12.689249943485379
21
-58.897263946135183
31
0
0
LINE
5
269
100
AcDbEntity
8
0
100
AcDbLine
10
48.060750056514649
20
10.245593196721963
30
0
11
-12.689249943485379
21
10.245593196721963
31
0
0
LINE
5
270
100
AcDbEntity
8
0
100
AcDbLine
10
48.060750056514649
20
-33.754406803278044
30
0
11
-12.689249943485379
21
-33.754406803278044
31
0
0
LINE
5
271
100
AcDbEntity
8
0
100
AcDbLine
10
48.060750056514649
20
-14.89726394613518
30
0
11
-12.689249943485379
21
-14.89726394613518
31
0
0
LINE
5
272
100
AcDbEntity
8
0
100
AcDbLine
10
20.435750056514692
20
144.48330748243626
30
0
11
14.185750056514692
21
144.48330748243626
31
0
0
LINE
5
273
100
AcDbEntity
8
0
100
AcDbLine
10
48.060750056514649
20
54.245593196721948
30
0
11
-12.689249943485379
21
54.245593196721948
31
0
0
LINE
5
274
100
AcDbEntity
8
0
100
AcDbLine
10
48.060750056514649
20
-21.182978231849461
30
0
11
-12.689249943485379
21
-21.182978231849461
31
0
0
LINE
5
275
100
AcDbEntity
8
0
100
AcDbLine
10
48.060750056514649
20
-121.75440680327803
30
0
11
-12.689249943485379
21
-121.75440680327803
31
0
0
LINE
5
276
100
AcDbEntity
8
0
100
AcDbLine
10
82.935750056514692
20
-21.182978231849461
30
0
11
52.560750056514678
21
-21.182978231849461
31
0
0
LINE
5
277
100
AcDbEntity
8
0
100
AcDbLine
10
48.060750056514649
20
-8.6115496604208985
30
0
11
-12.689249943485379
21
-8.6115496604208985
31
0
0
LINE
5
278
100
AcDbEntity
8
0
100
AcDbLine
10
82.935750056514692
20
-33.754406803278044
30
0
11
52.560750056514678
21
-33.754406803278044
31
0
0
LINE
5
279
100
AcDbEntity
8
0
100
AcDbLine
10
48.060750056514649
20
-40.040121088992322
30
0
11
-12.689249943485379
21
-40.040121088992322
31
0
0
LINE
5
280
100
AcDbEntity
8
0
100
AcDbLine
10
48.060750056514649
20
41.674164625293386
30
0
11
-12.689249943485379
21
41.674164625293386
31
0
0
LINE
5
281
100
AcDbEntity
8
0
100
AcDbLine
10
48.060750056514649
20
22.817021768150525
30
0
11
-12.689249943485379
21
22.817021768150525
31
0
0
LINE
5
282
100
AcDbEntity
8
0
100
AcDbLine
10
-50.564249943485322
20
90.48330748243626
30
0
11
-50.564249943485322
21
77.98330748243626
31
0
0
LINE
5
283
100
AcDbEntity
8
0
100
AcDbLine
10
48.060750056514649
20
-153.18297823184946
30
0
11
-12.689249943485379
21
-153.18297823184946
31
0
0
LINE
5
284
100
AcDbEntity
8
0
100
AcDbLine
10
48.060750056514649
20
29.102736053864824
30
0
11
-12.689249943485379
21
29.102736053864824
31
0
0
LINE
5
285
100
AcDbEntity
8
0
100
AcDbLine
10
-17.189249943485407
20
-65.182978231849447
30
0
11
-54.564249943485379
21
-65.182978231849447
31
0
0
LINE
5
286
100
AcDbEntity
8
0
100
AcDbLine
10
10.685750056514607
20
-37.040121088992315
30
0
11
-47.564249943485422
21
-37.040121088992315
31
0
0
LINE
5
287
100
AcDbEntity
8
0
100
AcDbLine
10
10.685750056514607
20
-24.468692517563753
30
0
11
-47.564249943485422
21
-24.468692517563753
31
0
0
LINE
5
288
100
AcDbEntity
8
0
100
AcDbLine
10
48.060750056514649
20
47.959878911007685
30
0
11
-12.689249943485379
21
47.959878911007685
31
0
0
LINE
5
289
100
AcDbEntity
8
0
100
AcDbLine
10
48.060750056514649
20
35.388450339579087
30
0
11
-12.689249943485379
21
35.388450339579087
31
0
0
LINE
5
290
100
AcDbEntity
8
0
100
AcDbLine
10
48.060750056514649
20
-2.3258353747066174
30
0
11
-12.689249943485379
21
-2.3258353747066174
31
0
0
LINE
5
291
100
AcDbEntity
8
0
100
AcDbLine
10
48.060750056514649
20
-109.18297823184946
30
0
11
-12.689249943485379
21
-109.18297823184946
31
0
0
LINE
5
292
100
AcDbEntity
8
0
100
AcDbLine
10
48.060750056514649
20
3.9598789110076638
30
0
11
-12.689249943485379
21
3.9598789110076638
31
0
0
LINE
5
293
100
AcDbEntity
8
0
100
AcDbLine
10
82.935750056514692
20
-52.611549660420906
30
0
11
52.560750056514678
21
-52.611549660420906
31
0
0
LINE
5
294
100
AcDbEntity
8
0
100
AcDbLine
10
10.685750056514607
20
-18.182978231849454
30
0
11
-47.564249943485422
21
-18.182978231849454
31
0
0
LINE
5
295
100
AcDbEntity
8
0
100
AcDbLine
10
82.935750056514692
20
10.245593196721963
30
0
11
52.560750056514678
21
10.245593196721963
31
0
0
LINE
5
296
100
AcDbEntity
8
0
100
AcDbLine
10
48.060750056514649
20
60.531307482436247
30
0
11
-12.689249943485379
21
60.531307482436247
31
0
0
LINE
5
297
100
AcDbEntity
8
0
100
AcDbLine
10
-50.564249943485322
20
136.48330748243626
30
0
11
-50.564249943485322
21
132.23330748243626
31
0
0
LINE
5
298
100
AcDbEntity
8
0
100
AcDbLine
10
-29.564249943485308
20
140.48330748243626
30
0
11
-17.064249943485308
21
140.48330748243626
31
0
0
LINE
5
299
100
AcDbEntity
8
0
100
AcDbLine
10
-17.189249943485407
20
-27.46869251756376
30
0
11
-54.564249943485379
21
-27.46869251756376
31
0
0
LINE
5
300
100
AcDbEntity
8
0
100
AcDbLine
10
-17.189249943485407
20
-153.18297823184946
30
0
11
-54.564249943485379
21
-153.18297823184946
31
0
0
LINE
5
301
100
AcDbEntity
8
0
100
AcDbLine
10
48.060750056514649
20
-159.46869251756374
30
0
11
-12.689249943485379
21
-159.46869251756374
31
0
0
LINE
5
302
100
AcDbEntity
8
0
100
AcDbLine
10
48.060750056514649
20
-102.89726394613517
30
0
11
-12.689249943485379
21
-102.89726394613517
31
0
0
LINE
5
303
100
AcDbEntity
8
0
100
AcDbLine
10
10.685750056514607
20
-125.04012108899232
30
0
11
-47.564249943485422
21
-125.04012108899232
31
0
0
LINE
5
304
100
AcDbEntity
8
0
100
AcDbLine
10
7.9357500565146921
20
140.48330748243626
30
0
11
7.9357500565146921
21
144.48330748243626
31
0
0
LINE
5
305
100
AcDbEntity
8
0
100
AcDbLine
10
82.935750056514692
20
16.531307482436262
30
0
11
52.560750056514678
21
16.531307482436262
31
0
0
LINE
5
306
100
AcDbEntity
8
0
100
AcDbLine
10
82.935750056514692
20
29.102736053864824
30
0
11
52.560750056514678
21
29.102736053864824
31
0
0
LINE
5
307
100
AcDbEntity
8
0
100
AcDbLine
10
-17.189249943485407
20
-52.611549660420906
30
0
11
-54.564249943485379
21
-52.611549660420906
31
0
0
LINE
5
308
100
AcDbEntity
8
0
100
AcDbLine
10
-17.189249943485407
20
-90.3258353747066
30
0
11
-54.564249943485379
21
-90.3258353747066
31
0
0
LINE
5
309
100
AcDbEntity
8
0
100
AcDbLine
10
48.060750056514649
20
-134.32583537470663
30
0
11
-12.689249943485379
21
-134.32583537470663
31
0
0
LINE
5
310
100
AcDbEntity
8
0
100
AcDbLine
10
10.685750056514607
20
-106.18297823184946
30
0
11
-47.564249943485422
21
-106.18297823184946
31
0
0
LINE
5
311
100
AcDbEntity
8
0
100
AcDbLine
10
-17.189249943485407
20
-21.182978231849461
30
0
11
-54.564249943485379
21
-21.182978231849461
31
0
0
LINE
5
312
100
AcDbEntity
8
0
100
AcDbLine
10
82.935750056514692
20
60.531307482436247
30
0
11
52.560750056514678
21
60.531307482436247
31
0
0
LINE
5
313
100
AcDbEntity
8
0
100
AcDbLine
10
-50.564249943485322
20
102.98330748243626
30
0
11
-54.564249943485308
21
102.98330748243626
31
0
0
LINE
5
314
100
AcDbEntity
8
0
100
AcDbLine
10
82.935750056514692
20
115.48330748243626
30
0
11
78.935750056514706
21
115.48330748243626
31
0
0
LINE
5
315
100
AcDbEntity
8
0
100
AcDbLine
10
82.935750056514692
20
-46.325835374706621
30
0
11
52.560750056514678
21
-46.325835374706621
31
0
0
LINE
5
316
100
AcDbEntity
8
0
100
AcDbLine
10
32.935750056514692
20
140.48330748243626
30
0
11
20.435750056514692
21
140.48330748243626
31
0
0
LINE
5
317
100
AcDbEntity
8
0
100
AcDbLine
10
-17.189249943485407
20
-71.468692517563738
30
0
11
-54.564249943485379
21
-71.468692517563738
31
0
0
LINE
5
318
100
AcDbEntity
8
0
100
AcDbLine
10
48.060750056514649
20
-146.89726394613518
30
0
11
-12.689249943485379
21
-146.89726394613518
31
0
0
LINE
5
319
100
AcDbEntity
8
0
100
AcDbLine
10
-17.189249943485407
20
-58.897263946135183
30
0
11
-54.564249943485379
21
-58.897263946135183
31
0
0
LINE
5
320
100
AcDbEntity
8
0
100
AcDbLine
10
48.060750056514649
20
-140.61154966042091
30
0
11
-12.689249943485379
21
-140.61154966042091
31
0
0
LINE
5
321
100
AcDbEntity
8
0
100
AcDbLine
10
82.935750056514692
20
-40.040121088992322
30
0
11
52.560750056514678
21
-40.040121088992322
31
0
0
LINE
5
322
100
AcDbEntity
8
0
100
AcDbLine
10
10.685750056514607
20
-49.611549660420891
30
0
11
-47.564249943485422
21
-49.611549660420891
31
0
0
LINE
5
323
100
AcDbEntity
8
0
100
AcDbLine
10
82.935750056514692
20
-171.96869251756371
30
0
11
-54.564249943485308
21
-171.96869251756374
31
0
0
LINE
5
324
100
AcDbEntity
8
0
100
AcDbLine
10
82.935750056514692
20
-90.3258353747066
30
0
11
52.560750056514678
21
-90.3258353747066
31
0
0
LINE
5
325
100
AcDbEntity
8
0
100
AcDbLine
10
-17.189249943485407
20
-115.46869251756377
30
0
11
-54.564249943485379
21
-115.46869251756377
31
0
0
LINE
5
326
100
AcDbEntity
8
0
100
AcDbLine
10
10.685750056514607
20
6.9598789110076709
30
0
11
-47.564249943485422
21
6.9598789110076709
31
0
0
LINE
5
327
100
AcDbEntity
8
0
100
AcDbLine
10
-17.189249943485407
20
-2.3258353747066174
30
0
11
-54.564249943485379
21
-2.3258353747066174
31
0
0
LINE
5
328
100
AcDbEntity
8
0
100
AcDbLine
10
-17.189249943485407
20
-8.6115496604208985
30
0
11
-54.564249943485379
21
-8.6115496604208985
31
0
0
LINE
5
329
100
AcDbEntity
8
0
100
AcDbLine
10
-54.564249943485308
20
77.98330748243626
30
0
11
-54.564249943485308
21
-22.016692517563747
31
0
0
LINE
5
330
100
AcDbEntity
8
0
100
AcDbLine
10
10.685750056514607
20
57.245593196721956
30
0
11
-47.564249943485422
21
57.245593196721956
31
0
0
LINE
5
331
100
AcDbEntity
8
0
100
AcDbLine
10
82.935750056514692
20
65.48330748243626
30
0
11
82.935750056514692
21
-171.96869251756371
31
0
0
LINE
5
332
100
AcDbEntity
8
0
100
AcDbLine
10
10.685750056514607
20
-11.897263946135173
30
0
11
-47.564249943485422
21
-11.897263946135173
31
0
0
LINE
5
333
100
AcDbEntity
8
0
100
AcDbLine
10
-17.189249943485407
20
29.102736053864824
30
0
11
-54.564249943485379
21
29.102736053864824
31
0
0
LINE
5
334
100
AcDbEntity
8
0
100
AcDbLine
10
-17.189249943485407
20
16.531307482436262
30
0
11
-54.564249943485379
21
16.531307482436262
31
0
0
LINE
5
335
100
AcDbEntity
8
0
100
AcDbLine
10
10.685750056514607
20
-5.6115496604208914
30
0
11
-47.564249943485422
21
-5.6115496604208914
31
0
0
ENDSEC
0
SECTION
2
OBJECTS
0
DICTIONARY
5
C
100
AcDbDictionary
3
ACAD_GROUP
350
D
3
ACAD_MLINESTYLE
350
17
0
DICTIONARY
5
D
100
AcDbDictionary
0
DICTIONARY
5
1A
330
C
100
AcDbDictionary
0
DICTIONARY
5
17
100
AcDbDictionary
0
ENDSEC
0
EOF
